<svg width="100" height="100" viewBox="0 0 100 100" fill="none" xmlns="http://www.w3.org/2000/svg">
<rect x="1.5" y="1.5" width="97" height="97" rx="18.5" fill="white" stroke="black" stroke-width="3"/>
<path d="M85 69.2391C82.4537 69.8866 80.8787 69.2675 79.4656 67.1456L69.4162 53.2419L67.9637 51.3169L56.2278 67.1916C54.8869 69.1012 53.4803 69.9325 50.9778 69.2566L66.0059 49.0834L52.0147 30.8616C54.4209 30.3934 56.0834 30.6319 57.56 32.7866L67.9834 46.8631L78.4834 32.8631C79.8287 30.9534 81.2747 30.2272 83.6897 30.9316L78.2647 38.1241L70.9147 47.6944C70.0397 48.7881 70.16 49.5362 70.965 50.5928L85 69.2391ZM15.0175 48.7466L16.2469 42.7003C19.5937 30.7347 33.3094 25.7625 42.7681 33.1562C48.2959 37.505 49.6697 43.6562 49.3962 50.5469H18.2375C17.7694 62.95 26.6966 70.4356 38.0781 66.6162C42.0703 65.2753 44.4219 62.1494 45.5987 58.2381C46.1959 56.2781 47.1847 55.9719 49.0266 56.5319C48.0859 61.4231 45.9641 65.5094 41.4797 68.0666C34.7794 71.8947 25.2156 70.6566 20.1844 65.3366C17.1875 62.25 15.9494 58.3387 15.3938 54.1562C15.3063 53.465 15.1312 52.8066 15 52.1437C15.0117 51.0121 15.0175 49.8804 15.0175 48.7487V48.7466ZM18.2944 47.9153H46.4519C46.2681 38.9466 40.6834 32.5766 33.0512 32.5219C24.6731 32.4562 18.6575 38.6753 18.2944 47.9153Z" fill="black"/>
</svg>
