<svg xmlns="http://www.w3.org/2000/svg" width="100" height="100" fill="none" viewBox="0 0 100 100"><rect width="97" height="97" x="1.5" y="1.5" fill="#fff" stroke="#000" stroke-width="3" rx="18.5"/><path fill="url(#paint0_linear_22_217)" d="M51.3582 15.45C50.3165 14.8639 49.0796 14.8639 48.0378 15.45L20.6277 31.274C19.586 31.86 19 32.9671 19 34.1393V65.8524C19 67.0245 19.6511 68.1316 20.6277 68.7176L48.0378 84.5417C49.0796 85.1277 50.3165 85.1277 51.3582 84.5417L78.7684 68.7176C79.8101 68.1316 80.396 67.0245 80.396 65.8524V34.1393C80.396 32.9671 79.745 31.86 78.7684 31.274L51.3582 15.45Z"/><path fill="url(#paint1_linear_22_217)" d="M78.8335 31.274L51.2931 15.45C51.0327 15.3197 50.7072 15.1895 50.4467 15.1244L19.655 67.8727C19.9155 68.1984 20.3261 68.6741 20.6517 68.8694L48.0378 84.5417C48.819 84.9975 49.7306 85.1277 50.5769 84.8673L79.5497 31.86C79.3543 31.5996 79.0939 31.4042 78.8335 31.274Z"/><path fill="url(#paint2_linear_22_217)" d="M78.7655 68.7176C79.5468 68.2618 80.2518 67.4073 80.2518 66.3778L50.2485 15.0593C49.4673 14.929 48.6209 14.9941 47.9047 15.45L20.5597 31.2089L50.0533 84.9975C50.4439 84.9323 50.8997 84.8022 51.2903 84.6067L78.7655 68.7176Z"/><defs><linearGradient id="paint0_linear_22_217" x1="60.861" x2="36.054" y1="27.23" y2="77.806" gradientUnits="userSpaceOnUse"><stop stop-color="#3F873F"/><stop offset=".33" stop-color="#3F8B3D"/><stop offset=".637" stop-color="#3E9638"/><stop offset=".934" stop-color="#3DA92E"/><stop offset="1" stop-color="#3DAE2B"/></linearGradient><linearGradient id="paint1_linear_22_217" x1="45.526" x2="115.653" y1="53.643" y2=".635" gradientUnits="userSpaceOnUse"><stop offset=".138" stop-color="#3F873F"/><stop offset=".402" stop-color="#52A044"/><stop offset=".713" stop-color="#64B749"/><stop offset=".908" stop-color="#6ABF4B"/></linearGradient><linearGradient id="paint2_linear_22_217" x1="17.995" x2="81.421" y1="49.986" y2="49.986" gradientUnits="userSpaceOnUse"><stop offset=".092" stop-color="#6ABF4B"/><stop offset=".287" stop-color="#64B749"/><stop offset=".598" stop-color="#52A044"/><stop offset=".862" stop-color="#3F873F"/></linearGradient></defs></svg>