<svg width="100" height="100" viewBox="0 0 100 100" fill="none" xmlns="http://www.w3.org/2000/svg">
<rect x="1.5" y="1.5" width="97" height="97" rx="18.5" fill="white" stroke="black" stroke-width="3"/>
<g clip-path="url(#clip0_1_17)">
<path d="M49.6667 50C49.6667 42.7113 55.5754 36.8024 62.8643 36.8024C70.153 36.8024 76.0618 42.7113 76.0618 50C76.0618 57.2889 70.153 63.1976 62.8643 63.1976C55.5754 63.1976 49.6667 57.2889 49.6667 50Z" fill="#1ABCFE"/>
<path d="M23.2715 76.3952C23.2715 69.1065 29.1802 63.1976 36.4691 63.1976H49.6667V76.3952C49.6667 83.6841 43.758 89.5928 36.4691 89.5928C29.1802 89.5928 23.2715 83.6841 23.2715 76.3952Z" fill="#0ACF83"/>
<path d="M49.6667 10.4073V36.8024H62.8643C70.1531 36.8024 76.0618 30.8937 76.0618 23.6049C76.0618 16.3161 70.1531 10.4073 62.8643 10.4073H49.6667Z" fill="#FF7262"/>
<path d="M23.2715 23.6049C23.2715 30.8937 29.1802 36.8024 36.4691 36.8024H49.6667V10.4073H36.4691C29.1802 10.4073 23.2715 16.3161 23.2715 23.6049Z" fill="#F24E1E"/>
<path d="M23.2715 50C23.2715 57.2889 29.1802 63.1976 36.4691 63.1976H49.6667V36.8024H36.4691C29.1802 36.8024 23.2715 42.7113 23.2715 50Z" fill="#A259FF"/>
</g>
<defs>
<clipPath id="clip0_1_17">
<rect width="53.3333" height="80" fill="white" transform="translate(23 10)"/>
</clipPath>
</defs>
</svg>
