<svg xmlns="http://www.w3.org/2000/svg" width="100" height="100" fill="none" viewBox="0 0 100 100"><rect width="97" height="97" x="1.5" y="1.5" fill="#fff" stroke="#000" stroke-width="3" rx="18.5"/><g clip-path="url(#clip0_1_17)"><path fill="#1ABCFE" d="M49.6667 50C49.6667 42.7113 55.5754 36.8024 62.8643 36.8024C70.153 36.8024 76.0618 42.7113 76.0618 50C76.0618 57.2889 70.153 63.1976 62.8643 63.1976C55.5754 63.1976 49.6667 57.2889 49.6667 50Z"/><path fill="#0ACF83" d="M23.2715 76.3952C23.2715 69.1065 29.1802 63.1976 36.4691 63.1976H49.6667V76.3952C49.6667 83.6841 43.758 89.5928 36.4691 89.5928C29.1802 89.5928 23.2715 83.6841 23.2715 76.3952Z"/><path fill="#FF7262" d="M49.6667 10.4073V36.8024H62.8643C70.1531 36.8024 76.0618 30.8937 76.0618 23.6049C76.0618 16.3161 70.1531 10.4073 62.8643 10.4073H49.6667Z"/><path fill="#F24E1E" d="M23.2715 23.6049C23.2715 30.8937 29.1802 36.8024 36.4691 36.8024H49.6667V10.4073H36.4691C29.1802 10.4073 23.2715 16.3161 23.2715 23.6049Z"/><path fill="#A259FF" d="M23.2715 50C23.2715 57.2889 29.1802 63.1976 36.4691 63.1976H49.6667V36.8024H36.4691C29.1802 36.8024 23.2715 42.7113 23.2715 50Z"/></g><defs><clipPath id="clip0_1_17"><rect width="53.333" height="80" fill="#fff" transform="translate(23 10)"/></clipPath></defs></svg>