<svg width="100" height="100" viewBox="0 0 100 100" fill="none" xmlns="http://www.w3.org/2000/svg">
<rect x="1.5" y="1.5" width="97" height="97" rx="18.5" fill="white" stroke="black" stroke-width="3"/>
<g clip-path="url(#clip0_1_17)">
<path d="M85 15H15V85H85V15Z" fill="#F7DF1E"/>
<path d="M62.0222 69.6878C63.4322 71.99 65.2667 73.6822 68.5111 73.6822C71.2367 73.6822 72.9778 72.32 72.9778 70.4378C72.9778 68.1822 71.1889 67.3833 68.1889 66.0711L66.5444 65.3656C61.7978 63.3433 58.6444 60.81 58.6444 55.4544C58.6444 50.5211 62.4033 46.7656 68.2778 46.7656C72.46 46.7656 75.4667 48.2211 77.6333 52.0322L72.5111 55.3211C71.3833 53.2989 70.1667 52.5022 68.2778 52.5022C66.3511 52.5022 65.13 53.7244 65.13 55.3211C65.13 57.2944 66.3522 58.0933 69.1744 59.3156L70.8189 60.02C76.4078 62.4167 79.5633 64.86 79.5633 70.3533C79.5633 76.2756 74.9111 79.52 68.6633 79.52C62.5544 79.52 58.6078 76.6089 56.6767 72.7933L62.0222 69.6878ZM38.7856 70.2578C39.8189 72.0911 40.7589 73.6411 43.0189 73.6411C45.18 73.6411 46.5433 72.7956 46.5433 69.5078V47.1411H53.1211V69.5967C53.1211 76.4078 49.1278 79.5078 43.2989 79.5078C38.0322 79.5078 34.9822 76.7822 33.4311 73.4994L38.7856 70.2578Z" fill="black"/>
</g>
<defs>
<clipPath id="clip0_1_17">
<rect width="70" height="70" fill="white" transform="translate(15 15)"/>
</clipPath>
</defs>
</svg>
