<svg width="100" height="100" viewBox="0 0 100 100" fill="none" xmlns="http://www.w3.org/2000/svg">
<rect x="1.5" y="1.5" width="97" height="97" rx="18.5" fill="white" stroke="black" stroke-width="3"/>
<g clip-path="url(#clip0_1_17)">
<path d="M75.7756 38.0698C74.9242 37.7777 74.0656 37.5071 73.2006 37.2583C73.3459 36.6645 73.4797 36.078 73.5984 35.5017C75.5478 26.039 74.2734 18.4156 69.9206 15.9056C65.7472 13.4993 58.9219 16.0084 52.0289 22.0074C51.3495 22.5997 50.6852 23.2091 50.0367 23.8349C49.6025 23.4187 49.1607 23.0106 48.7114 22.6108C41.487 16.1965 34.2458 13.4931 29.8977 16.0103C25.728 18.424 24.4934 25.5905 26.2484 34.5586C26.423 35.4468 26.6201 36.3304 26.8396 37.2086C25.8146 37.4998 24.8256 37.8098 23.879 38.1398C15.409 41.0929 10 45.7207 10 50.521C10 55.4788 15.8068 60.4516 24.6287 63.4669C25.3439 63.7104 26.065 63.9359 26.7915 64.1435C26.5556 65.0893 26.3461 66.0415 26.1634 66.9991C24.4902 75.8115 25.7968 82.8087 29.9552 85.2071C34.2502 87.684 41.4589 85.1384 48.4779 79.0025C49.0471 78.5036 49.6037 77.9906 50.1473 77.464C50.8497 78.1417 51.5708 78.7996 52.3098 79.4371C59.1091 85.2877 65.8241 87.6502 69.9785 85.2452C74.2694 82.7612 75.6641 75.2443 73.8534 66.0991C73.7108 65.3826 73.5509 64.6697 73.3738 63.961C73.88 63.811 74.3769 63.6566 74.8612 63.496C84.0325 60.4575 89.9996 55.5451 89.9996 50.521C89.9996 45.7032 84.4159 41.0442 75.7756 38.0698ZM73.7866 60.2522C73.3491 60.3969 72.9003 60.5366 72.4428 60.6725C71.4303 57.4672 70.0641 54.0591 68.3919 50.5376C69.9875 47.1001 71.3013 43.7354 72.2853 40.5511C73.1038 40.7879 73.8978 41.0376 74.6634 41.3011C82.0665 43.8498 86.5821 47.6176 86.5821 50.521C86.5821 53.6135 81.7053 57.6282 73.7866 60.2522ZM70.501 66.7628C71.3016 70.8066 71.4156 74.4628 70.8853 77.3212C70.4091 79.8896 69.451 81.6018 68.266 82.2877C65.745 83.7471 60.3535 81.8502 54.5388 76.8465C53.8515 76.2538 53.1807 75.6421 52.5273 75.0122C54.7817 72.5469 57.0345 69.6809 59.2332 66.4978C63.1007 66.1547 66.7544 65.5935 70.0678 64.8275C70.2274 65.4691 70.3719 66.1144 70.501 66.7628ZM37.2736 82.0356C34.8105 82.9052 32.8486 82.9302 31.6627 82.2465C29.1393 80.7912 28.0902 75.1728 29.5212 67.6366C29.6913 66.746 29.886 65.8604 30.1052 64.9806C33.3821 65.7056 37.0092 66.2269 40.8858 66.5413C43.0995 69.6559 45.4173 72.5187 47.7533 75.0256C47.2568 75.5059 46.7487 75.974 46.2292 76.4293C43.1252 79.1424 40.0149 81.0674 37.2736 82.0356ZM25.7343 60.2332C21.8334 58.8997 18.6118 57.1669 16.4037 55.276C14.4194 53.5769 13.4178 51.8898 13.4178 50.521C13.4178 47.6079 17.7606 43.8923 25.004 41.367C25.883 41.0608 26.803 40.7717 27.7577 40.5004C28.759 43.7567 30.0721 47.1614 31.6568 50.6041C30.0515 54.0979 28.7196 57.5569 27.7087 60.8516C27.0456 60.6617 26.3873 60.4555 25.7343 60.2332ZM29.6024 33.902C28.099 26.2186 29.0974 20.4227 31.6102 18.9681C34.2864 17.4187 40.2045 19.6277 46.4423 25.1665C46.8491 25.5285 47.2492 25.8978 47.6426 26.2743C45.3183 28.7702 43.0217 31.6117 40.8277 34.708C37.0652 35.0567 33.4636 35.6167 30.1524 36.367C29.9484 35.5502 29.765 34.7281 29.6024 33.902ZM64.1107 42.4232C63.3286 41.0723 62.5174 39.7383 61.6779 38.4223C64.2304 38.7451 66.676 39.1736 68.9725 39.6973C68.2832 41.9073 67.4238 44.2176 66.4122 46.5864C65.6728 45.1835 64.9055 43.7955 64.1107 42.4232ZM50.0382 28.7168C51.6145 30.4246 53.1932 32.3311 54.746 34.3999C51.596 34.2511 48.4408 34.2505 45.2908 34.398C46.8451 32.3483 48.4373 30.4442 50.0382 28.7168ZM35.8755 42.4467C35.0906 43.8079 34.3376 45.1872 33.6171 46.5835C32.6221 44.2232 31.7705 41.9023 31.0752 39.6611C33.3577 39.1505 35.7917 38.733 38.328 38.4161C37.4791 39.7401 36.6613 41.0842 35.8755 42.4467ZM38.4008 62.8691C35.7805 62.5766 33.3099 62.1807 31.028 61.6838C31.7343 59.4025 32.6046 57.0322 33.6211 54.6213C34.3445 56.0187 35.1007 57.3989 35.8889 58.7607C36.6996 60.1607 37.5389 61.5319 38.4008 62.8691ZM50.1326 72.5659C48.5126 70.8184 46.897 68.885 45.3192 66.8056C46.8511 66.8656 48.4126 66.8963 49.9998 66.8963C51.6304 66.8963 53.2423 66.8597 54.8288 66.7891C53.271 68.9059 51.6982 70.8422 50.1326 72.5659ZM66.4444 54.4982C67.5138 56.9357 68.415 59.2935 69.1306 61.5357C66.8113 62.065 64.3069 62.4913 61.6682 62.8078C62.5137 61.4674 63.3325 60.1103 64.1241 58.7372C64.9289 57.3416 65.7025 55.9282 66.4444 54.4982ZM61.1638 57.0297C59.952 59.1348 58.6721 61.2 57.326 63.2219C54.8878 63.3946 52.4442 63.4804 49.9998 63.4791C47.5101 63.4791 45.0886 63.4016 42.7567 63.2503C41.3755 61.2331 40.0712 59.1643 38.8464 57.0485C37.6274 54.9438 36.4891 52.7937 35.4333 50.6026C36.4864 48.411 37.6216 46.2598 38.8364 44.1536L38.8361 44.1539C40.0505 42.0471 41.3444 39.9872 42.7152 37.9786C45.0942 37.7986 47.5339 37.7048 49.9995 37.7048C52.4764 37.7048 54.9195 37.7995 57.2979 37.9808C58.6548 39.9863 59.9405 42.0392 61.1526 44.1354C62.3714 46.237 63.5216 48.3777 64.6013 50.5541C63.5327 52.7528 62.3862 54.9127 61.1638 57.0297ZM68.2138 18.8662C70.8925 20.4112 71.9344 26.6415 70.2513 34.8117C70.1438 35.333 70.0231 35.8639 69.8919 36.4023C66.5725 35.6361 62.9685 35.0664 59.1951 34.7123C56.997 31.5821 54.7192 28.7361 52.4326 26.2724C53.0319 25.6947 53.6454 25.1321 54.2726 24.5849C60.1788 19.4452 65.6988 17.4159 68.2138 18.8662ZM49.9998 43.3773C53.9451 43.3773 57.1435 46.5757 57.1435 50.521C57.1435 54.4663 53.9451 57.6647 49.9998 57.6647C46.0545 57.6647 42.8561 54.4663 42.8561 50.521C42.8561 46.5757 46.0545 43.3773 49.9998 43.3773Z" fill="#00D8FF"/>
</g>
<defs>
<clipPath id="clip0_1_17">
<rect width="80" height="71.2496" fill="white" transform="translate(10 15)"/>
</clipPath>
</defs>
</svg>
