<svg width="100" height="100" viewBox="0 0 100 100" fill="none" xmlns="http://www.w3.org/2000/svg">
<g clip-path="url(#clip0_310_8)">
<rect x="1.5" y="1.5" width="97" height="97" rx="18.5" fill="white" stroke="black" stroke-width="3"/>
<g clip-path="url(#clip1_310_8)">
<path fill-rule="evenodd" clip-rule="evenodd" d="M49.5002 12.9998C70.2109 12.9998 87.0002 29.7893 87.0002 50.5C87.0002 71.2107 70.2109 88 49.5002 88C28.7894 88 12 71.2107 12 50.5C12 29.7893 28.7894 12.9998 49.5002 12.9998Z" fill="#CC499C"/>
<path d="M42.0476 62.9914C42.5933 65.0095 42.5334 66.8915 41.9699 68.5959C41.9073 68.7852 41.8383 68.9725 41.7634 69.1576C41.6886 69.3423 41.6075 69.525 41.5206 69.7054C41.086 70.6071 40.5028 71.4512 39.7885 72.2302C37.6097 74.6072 34.5655 75.5061 33.2602 74.7487C31.8506 73.9317 32.5567 70.5802 35.0828 67.9101C37.8005 65.0371 41.7107 63.19 41.7107 63.19L41.7047 63.1783C41.8173 63.1177 41.9317 63.0553 42.0476 62.9914ZM73.0228 29.0503C71.3246 22.3902 60.2813 20.2008 49.8295 23.914C43.6094 26.1237 36.8757 29.5919 32.0341 34.1207C26.2774 39.5053 25.3593 44.1918 25.7377 46.1501C27.0724 53.0599 36.5402 57.5765 40.4323 60.9276V60.9478C39.2847 61.5128 30.8848 65.7638 28.9191 70.1097C26.8449 74.6945 29.2492 77.9846 30.841 78.4275C35.773 79.7996 40.8341 77.3315 43.554 73.2746C46.1787 69.3594 45.9602 64.3038 44.8195 61.789C46.393 61.3739 48.2273 61.1879 50.5585 61.4602C57.1367 62.2285 58.4275 66.336 58.1807 68.0546C57.934 69.7738 56.5542 70.719 56.093 71.0043C55.6315 71.2898 55.4908 71.3885 55.5296 71.6007C55.5855 71.9091 55.7991 71.8977 56.1924 71.831C56.7339 71.7397 59.6466 70.4328 59.7711 67.2597C59.9298 63.231 56.069 58.7245 49.2331 58.8422C46.4178 58.8908 44.6476 59.1586 43.3689 59.6345C43.2743 59.5268 43.1781 59.4196 43.0786 59.3136C38.8525 54.8047 31.04 51.6151 31.3713 45.5536C31.4917 43.3499 32.2577 37.5472 46.3831 30.5085C57.9543 24.7428 67.2175 26.3294 68.8183 29.8458C71.105 34.8695 63.8677 44.2068 51.8509 45.5536C47.2726 46.0669 44.862 44.2924 44.2624 43.6316C43.631 42.9359 43.537 42.9045 43.3013 43.0351C42.9173 43.2477 43.1606 43.862 43.3013 44.2281C43.66 45.1618 45.1324 46.8176 47.6425 47.6413C49.8505 48.3659 55.2259 48.7641 61.7267 46.2496C69.0073 43.4332 74.6926 35.5989 73.0228 29.0503Z" fill="white"/>
</g>
</g>
<defs>
<clipPath id="clip0_310_8">
<rect width="100" height="100" fill="white"/>
</clipPath>
<clipPath id="clip1_310_8">
<rect width="75" height="75" fill="white" transform="translate(12 13)"/>
</clipPath>
</defs>
</svg>
