<svg width="100" height="100" viewBox="0 0 100 100" fill="none" xmlns="http://www.w3.org/2000/svg">
<rect x="1.5" y="1.5" width="97" height="97" rx="18.5" fill="white" stroke="black" stroke-width="3"/>
<g clip-path="url(#clip0_306_37)">
<path d="M81.7188 14H18.2812C16.4691 14 15 15.4691 15 17.2812V80.7188C15 82.5309 16.4691 84 18.2812 84H81.7188C83.5309 84 85 82.5309 85 80.7188V17.2812C85 15.4691 83.5309 14 81.7188 14Z" fill="#3178C6"/>
<path fill-rule="evenodd" clip-rule="evenodd" d="M55.6121 68.3966V76.067C56.8549 76.7058 58.3245 77.1854 60.0213 77.5048C61.7181 77.8247 63.5064 77.9844 65.3864 77.9844C67.2186 77.9844 68.9592 77.8088 70.6079 77.4572C72.2573 77.1055 73.7027 76.5264 74.9457 75.7192C76.1882 74.912 77.172 73.8577 77.8972 72.555C78.6218 71.2529 78.9844 69.6429 78.9844 67.7254C78.9844 66.3352 78.7771 65.1167 78.3631 64.07C77.9486 63.0234 77.3514 62.0926 76.5705 61.2776C75.7901 60.4626 74.8538 59.7315 73.7628 59.0844C72.6713 58.4372 71.4408 57.826 70.0703 57.2507C69.0667 56.8352 68.1665 56.4318 67.37 56.0402C66.5733 55.6487 65.8962 55.2492 65.3386 54.8418C64.781 54.4342 64.3508 54.0028 64.0481 53.5474C63.7454 53.092 63.5941 52.5766 63.5941 52.0014C63.5941 51.474 63.7295 50.9986 64.0003 50.5752C64.2712 50.1517 64.6536 49.7882 65.1475 49.4845C65.6413 49.181 66.2467 48.9453 66.9637 48.7775C67.6806 48.6096 68.4772 48.5258 69.3535 48.5258C69.991 48.5258 70.6637 48.5737 71.373 48.6696C72.0817 48.7654 72.7948 48.9133 73.5118 49.113C74.2287 49.3128 74.9255 49.5644 75.603 49.8681C76.2801 50.1717 76.9052 50.5232 77.4788 50.9227V43.7559C76.3156 43.3084 75.0452 42.9768 73.6671 42.7611C72.289 42.5453 70.708 42.4375 68.9233 42.4375C67.1071 42.4375 65.3864 42.6332 63.7613 43.0247C62.1363 43.4162 60.7064 44.0275 59.4717 44.8584C58.2369 45.6894 57.2611 46.748 56.5442 48.0344C55.8272 49.3207 55.4688 50.8588 55.4688 52.6485C55.4688 54.9336 56.1259 56.8831 57.4403 58.4971C58.7548 60.1111 60.7502 61.4773 63.4268 62.5959C64.4783 63.0273 65.4581 63.4508 66.3662 63.8663C67.2744 64.2818 68.059 64.7132 68.7202 65.1607C69.3814 65.6081 69.903 66.0955 70.2852 66.6228C70.668 67.1501 70.8589 67.7493 70.8589 68.4205C70.8589 68.9161 70.7397 69.3755 70.5007 69.7987C70.2617 70.222 69.8991 70.5895 69.4132 70.9012C68.9273 71.213 68.3219 71.4569 67.597 71.6324C66.8721 71.808 66.0237 71.896 65.0519 71.896C63.3949 71.896 61.7539 71.6045 60.1288 71.021C58.5038 70.438 56.9982 69.563 55.6121 68.3966ZM42.728 49.3032H52.7344V42.9844H24.8438V49.3032H34.8012V77.4375H42.728V49.3032Z" fill="white"/>
</g>
<defs>
<clipPath id="clip0_306_37">
<rect width="70" height="70" fill="white" transform="translate(15 14)"/>
</clipPath>
</defs>
</svg>
