<svg width="100" height="100" viewBox="0 0 100 100" fill="none" xmlns="http://www.w3.org/2000/svg">
<rect x="1.5" y="1.5" width="97" height="97" rx="18.5" fill="white" stroke="black" stroke-width="3"/>
<path d="M34.0832 44.3079C34.0571 45.0601 34.156 45.8114 34.3757 46.5312C34.5864 47.1526 34.8541 47.7533 35.1753 48.3254C35.2839 48.4946 35.3446 48.6901 35.3509 48.891C35.3356 49.0447 35.2832 49.1925 35.1983 49.3215C35.1134 49.4506 34.9984 49.5572 34.8633 49.6321L33.3031 50.6657C33.1107 50.8088 32.8796 50.8903 32.64 50.8997C32.4993 50.8938 32.3612 50.8596 32.2339 50.7993C32.1066 50.739 31.9927 50.6538 31.8989 50.5487C31.5576 50.1977 31.2627 49.8045 31.0213 49.3786C30.7678 48.969 30.5143 48.4814 30.2412 47.9354C29.3615 49.0238 28.2462 49.8982 26.9793 50.4928C25.7125 51.0874 24.3271 51.3866 22.9278 51.3678C22.0159 51.4246 21.102 51.2967 20.2407 50.9917C19.3794 50.6867 18.5886 50.211 17.9157 49.5931C17.2947 48.9598 16.8112 48.205 16.4958 47.3761C16.1803 46.5471 16.0396 45.6619 16.0824 44.776C16.0455 43.8082 16.23 42.8448 16.6221 41.9593C17.0142 41.0737 17.6034 40.2895 18.3447 39.6663C20.0726 38.2918 22.2442 37.598 24.449 37.7161C25.3299 37.725 26.2093 37.7901 27.0818 37.9111C27.9984 38.0476 29.0321 38.2232 29.9487 38.4572V36.6239C30.0782 35.2213 29.6587 33.8232 28.7785 32.7235C27.6262 31.8281 26.1742 31.4092 24.722 31.5533C23.8152 31.5602 22.9121 31.6714 22.0307 31.8849C21.1133 32.1028 20.2136 32.3897 19.3393 32.743C19.0637 32.8737 18.7764 32.9782 18.4812 33.055C18.3519 33.0742 18.2205 33.0742 18.0912 33.055C17.7401 33.055 17.5646 32.782 17.5646 32.2749V31.0462C17.5405 30.7431 17.6013 30.4392 17.7401 30.1686C17.9255 29.9444 18.1588 29.7645 18.4227 29.6421C19.438 29.1665 20.4958 28.7878 21.5821 28.5109C22.8574 28.1912 24.1679 28.0339 25.4826 28.0429C27.8257 27.8131 30.1652 28.5135 31.9964 29.9931C32.7384 30.8203 33.3042 31.7897 33.6596 32.8425C34.015 33.8952 34.1525 35.0093 34.0637 36.1169L34.0832 44.3079ZM23.9614 48.0914C24.8387 48.0877 25.709 47.936 26.5358 47.6428C27.4496 47.3273 28.2638 46.7755 28.8955 46.0436C29.2967 45.5883 29.59 45.0483 29.7537 44.4639C29.9214 43.7549 30 43.0277 29.9877 42.2992V41.246C29.2229 41.0635 28.4479 40.9268 27.6669 40.8365C26.8907 40.7373 26.1091 40.6852 25.3266 40.6805C24.0111 40.5775 22.7008 40.9361 21.6211 41.6946C21.2069 42.0435 20.88 42.4845 20.6667 42.9823C20.4534 43.4801 20.3594 44.0209 20.3925 44.5614C20.3592 45.0425 20.4233 45.5252 20.5808 45.9809C20.7383 46.4366 20.986 46.8559 21.3091 47.2138C21.6712 47.5281 22.0921 47.7675 22.5474 47.9182C23.0027 48.0688 23.4833 48.1277 23.9614 48.0914V48.0914ZM43.9904 50.7632C43.655 50.7903 43.3198 50.7082 43.0348 50.5292C42.7608 50.2679 42.5765 49.9265 42.5083 49.5541L36.6575 30.2661C36.5542 29.9556 36.4824 29.6354 36.443 29.3105C36.4337 29.2289 36.4429 29.1462 36.47 29.0686C36.497 28.991 36.5413 28.9205 36.5994 28.8624C36.6575 28.8042 36.728 28.76 36.8056 28.7329C36.8832 28.7058 36.9659 28.6966 37.0476 28.706H39.5049C39.8466 28.6774 40.1885 28.7594 40.48 28.94C40.7316 29.2225 40.9062 29.565 40.9871 29.9346L45.2191 46.3947L49.1196 29.9151C49.1826 29.5434 49.3519 29.1979 49.6071 28.9205C49.9058 28.7397 50.2539 28.6578 50.6018 28.6865H52.552C52.906 28.6589 53.26 28.7406 53.5661 28.9205C53.8143 29.2003 53.9768 29.5455 54.0342 29.9151L57.9347 46.6092L62.2447 29.9151C62.3312 29.5436 62.5127 29.2009 62.7713 28.9205C63.0617 28.7373 63.4045 28.655 63.7464 28.6865H66.0672C66.1507 28.6765 66.2354 28.686 66.3147 28.7141C66.3939 28.7422 66.4656 28.7883 66.5241 28.8487C66.5826 28.9091 66.6264 28.9822 66.652 29.0623C66.6776 29.1424 66.6844 29.2274 66.6718 29.3105C66.6796 29.4469 66.6796 29.5837 66.6718 29.7201L66.4963 30.3247L60.431 49.5931C60.3628 49.9655 60.1785 50.3069 59.9044 50.5682C59.5941 50.7541 59.2276 50.8232 58.8708 50.7632H56.9206C56.5635 50.7963 56.2059 50.7068 55.9064 50.5097C55.6476 50.2293 55.4838 49.8744 55.4384 49.4956L51.5379 33.4451L47.6374 49.4956C47.578 49.8742 47.4085 50.2269 47.1498 50.5097C46.8577 50.7069 46.5061 50.7965 46.1552 50.7632H43.9904ZM76.0135 51.4263C74.7003 51.4295 73.3912 51.2789 72.113 50.9778C71.1121 50.7716 70.142 50.4373 69.2266 49.9831C68.9054 49.8351 68.6392 49.5894 68.466 49.281C68.3682 49.0596 68.3151 48.821 68.31 48.5789V47.3113C68.31 46.8042 68.505 46.5312 68.8756 46.5312C69.0304 46.5039 69.1888 46.5039 69.3436 46.5312L69.9677 46.7847C70.8531 47.1672 71.7742 47.4612 72.7175 47.6623C73.6939 47.8552 74.6867 47.9532 75.6819 47.9549C76.9503 48.0286 78.2139 47.7448 79.3289 47.1358C79.7251 46.9118 80.057 46.5896 80.2927 46.2002C80.5283 45.8109 80.6599 45.3674 80.6745 44.9125C80.6824 44.5923 80.6261 44.2737 80.5089 43.9756C80.3916 43.6775 80.2159 43.4059 79.992 43.1768C79.2666 42.5622 78.4141 42.1159 77.4956 41.8701L73.8682 40.7195C72.3429 40.296 70.9825 39.4186 69.9677 38.2036C69.1301 37.1767 68.6568 35.9009 68.622 34.5762C68.5979 33.6111 68.8265 32.6564 69.2851 31.8068C69.7524 31.0476 70.3616 30.3855 71.0793 29.8566C71.856 29.2694 72.7358 28.8329 73.6732 28.5694C74.6939 28.2769 75.7513 28.1324 76.8131 28.1404C77.3737 28.134 77.9341 28.1665 78.4903 28.2379C79.0558 28.2379 79.6019 28.4134 80.109 28.5304C80.5902 28.6347 81.0655 28.7649 81.5327 28.9205C81.8895 29.0318 82.2355 29.1754 82.5663 29.3495C82.8573 29.5071 83.1155 29.719 83.3269 29.9736C83.481 30.2181 83.5559 30.5041 83.5414 30.7927V31.9629C83.5414 32.4894 83.3464 32.7625 82.9758 32.7625C82.6351 32.7162 82.305 32.6106 82.0007 32.4504C80.4883 31.7923 78.8523 31.4664 77.2031 31.4948C76.0555 31.4341 74.9122 31.6762 73.8877 32.1969C73.5812 32.4081 73.3237 32.6829 73.1328 33.0025C72.9419 33.3221 72.822 33.679 72.7813 34.049C72.7406 34.4191 72.78 34.7935 72.8969 35.147C73.0138 35.5004 73.2054 35.8246 73.4586 36.0974C74.2673 36.7478 75.2044 37.2197 76.2085 37.4821L79.7384 38.6132C81.2551 38.9908 82.6177 39.8288 83.6389 41.012C84.4073 42.0115 84.813 43.2425 84.7896 44.5029C84.8264 45.4958 84.6328 46.4837 84.224 47.3893C83.7364 48.2531 83.0718 49.0041 82.2737 49.5931C81.4468 50.2261 80.507 50.696 79.5044 50.9778C78.3712 51.3116 77.1948 51.4759 76.0135 51.4653V51.4263Z" fill="#252F3F"/>
<path fill-rule="evenodd" clip-rule="evenodd" d="M84.2237 59.6757C83.1706 58.33 77.2809 59.0516 74.6285 59.3637C73.8289 59.4612 73.7119 58.7591 74.4335 58.252C79.1336 54.9561 86.8176 55.9117 87.7147 57.0039C88.6118 58.096 87.4807 65.8385 83.0731 69.5244C82.41 70.09 81.7664 69.7975 82.059 69.0369C82.9756 66.5601 85.1794 61.0214 84.2237 59.6757Z" fill="#FF9A00"/>
<path fill-rule="evenodd" clip-rule="evenodd" d="M80.7136 63.5763C72.5226 69.6415 60.6261 72.8594 50.3678 72.8594C36.6865 72.9247 23.4732 67.8827 13.3131 58.7202C12.5525 58.0181 13.3131 57.082 14.1517 57.6085C25.4356 64.0604 38.2082 67.4552 51.2064 67.4573C60.9326 67.3919 70.5498 65.4035 79.5045 61.6065C80.9086 61.08 82.0788 62.5817 80.7136 63.5763Z" fill="#FF9A00"/>
</svg>
