<svg width="100" height="100" viewBox="0 0 100 100" fill="none" xmlns="http://www.w3.org/2000/svg">
<rect x="1.5" y="1.5" width="97" height="97" rx="18.5" fill="white" stroke="black" stroke-width="3"/>
<g clip-path="url(#clip0_107_288)">
<path d="M50 85.3V72C64.0778 72 75.0056 58.0389 69.6 43.2222C67.6167 37.7389 63.2222 33.3445 57.7389 31.3611C42.9222 25.9945 28.9611 36.8833 28.9611 50.9611H15.7C15.7 28.5222 37.4 11.0222 60.9278 18.3722C71.1944 21.6 79.4 29.7667 82.5889 40.0333C89.9389 63.6 72.4778 85.3 50 85.3Z" fill="#0080FF"/>
<path d="M50.0389 72.0389H36.8167V58.8167H50.0389V72.0389Z" fill="#0080FF"/>
<path d="M36.8167 82.2278H26.6278V72.0389H36.8167V82.2278Z" fill="#0080FF"/>
<path d="M26.6278 72.0389H18.1111V63.5222H26.6278V72.0389Z" fill="#0080FF"/>
</g>
<defs>
<clipPath id="clip0_107_288">
<rect width="70" height="70" fill="white" transform="translate(15 16)"/>
</clipPath>
</defs>
</svg>
