<svg width="100" height="100" viewBox="0 0 100 100" fill="none" xmlns="http://www.w3.org/2000/svg">
<rect x="1.5" y="1.5" width="97" height="97" rx="18.5" fill="white" stroke="black" stroke-width="3"/>
<g clip-path="url(#clip0_4_82)">
<path fill-rule="evenodd" clip-rule="evenodd" d="M49.8808 10C27.8278 10 10 28.3333 10 51.0142C10 69.1442 21.4229 84.4908 37.2694 89.9225C39.2506 90.3308 39.9763 89.04 39.9763 87.9542C39.9763 87.0033 39.911 83.7442 39.911 80.3483C28.8171 82.7933 26.5069 75.4592 26.5069 75.4592C24.7241 70.7058 22.0824 69.4842 22.0824 69.4842C18.4514 66.9717 22.3469 66.9717 22.3469 66.9717C26.3747 67.2433 28.4882 71.1817 28.4882 71.1817C32.0531 77.4283 37.7975 75.6633 40.1086 74.5767C40.4384 71.9283 41.4955 70.095 42.618 69.0767C33.7698 68.1258 24.4604 64.595 24.4604 48.8408C24.4604 44.3592 26.0441 40.6925 28.5535 37.8408C28.1576 36.8225 26.7706 32.6117 28.9502 26.9758C28.9502 26.9758 32.3175 25.8892 39.9102 31.1858C43.1609 30.2881 46.5133 29.8313 49.8808 29.8275C53.2482 29.8275 56.6808 30.3033 59.8506 31.1858C67.4441 25.8892 70.8114 26.9758 70.8114 26.9758C72.991 32.6117 71.6033 36.8225 71.2073 37.8408C73.7829 40.6925 75.3012 44.3592 75.3012 48.8408C75.3012 64.595 65.9918 68.0575 57.0775 69.0767C58.5306 70.3667 59.7845 72.8108 59.7845 76.6817C59.7845 82.1817 59.7192 86.5958 59.7192 87.9533C59.7192 89.04 60.4457 90.3308 62.4261 89.9233C78.2727 84.49 89.6955 69.1442 89.6955 51.0142C89.7608 28.3333 71.8678 10 49.8808 10Z" fill="#24292F"/>
</g>
<defs>
<clipPath id="clip0_4_82">
<rect width="80" height="80" fill="white" transform="translate(10 10)"/>
</clipPath>
</defs>
</svg>
