<svg width="100" height="100" viewBox="0 0 100 100" fill="none" xmlns="http://www.w3.org/2000/svg">
<g clip-path="url(#clip0_310_11)">
<rect x="1.5" y="1.5" width="97" height="97" rx="18.5" fill="white" stroke="black" stroke-width="3"/>
<g clip-path="url(#clip1_310_11)">
<path fill-rule="evenodd" clip-rule="evenodd" d="M68.2316 71.0307L61.7179 72.0077L52.9247 72.9847L47.2252 73.1473L41.6891 72.9847L37.4551 71.6818L33.7099 67.6111L30.7789 59.3066L30.1276 57.5152L26.2196 56.2129L23.9398 52.4675L22.3115 47.094L24.103 42.3716L28.3363 40.9061L31.7559 42.5348L33.3845 46.117L35.3386 45.7911L35.9896 44.9773L35.3386 41.2319L35.1754 36.5095L36.1524 29.9963L36.1142 26.2759L39.0834 21.5291L44.2942 17.7837L53.4132 13.8757L63.5087 15.3412L72.3018 21.6918L76.373 28.205L78.9782 32.9273L79.6293 44.6514L77.6753 54.7474L74.0931 63.7031L70.6736 68.4255" fill="#F0D6B7"/>
<path fill-rule="evenodd" clip-rule="evenodd" d="M62.6949 99.2007L39.4092 100.178V104.086L41.3632 117.764L40.3862 118.904L24.103 113.367L22.9628 111.413L21.3345 93.0133L17.5899 81.9404L16.7754 79.3352L29.8019 70.3795L33.8731 68.7508L37.4552 73.1473L40.5489 75.9157L44.1316 77.0554L45.7597 77.5439L47.7137 86.0111L49.1792 87.8023L52.9247 86.4996L50.319 91.5478L64.4857 98.2237L62.6949 99.2007Z" fill="#335061"/>
<path fill-rule="evenodd" clip-rule="evenodd" d="M24.103 42.3716L28.3363 40.9061L31.7559 42.5347L33.3845 46.1169L35.3385 45.7911L35.8271 43.8371L34.85 40.0922L35.8271 31.136L35.0126 26.251L37.9436 22.8314L44.2942 17.7837L42.5029 15.3412L33.5471 19.7377L29.8018 22.6688L27.6851 27.228L24.4283 31.6245L23.4513 36.8354L24.103 42.3716Z" fill="#6D6B6D"/>
<path fill-rule="evenodd" clip-rule="evenodd" d="M30.7789 27.0653C30.7789 27.0653 33.2214 21.0406 42.9915 18.1095C52.7615 15.1785 43.48 15.9924 43.48 15.9924L32.896 20.0636L28.8249 24.1343L27.034 27.3911L30.7789 27.0653Z" fill="#DCD9D8"/>
<path fill-rule="evenodd" clip-rule="evenodd" d="M25.8938 41.2319C25.8938 41.2319 22.4743 29.8332 35.5011 28.205L35.0126 26.251L26.057 28.3681L23.4513 36.8354L24.103 42.3716L25.8938 41.2319Z" fill="#DCD9D8"/>
<path fill-rule="evenodd" clip-rule="evenodd" d="M31.1046 56.3755L33.2367 54.3096C33.2367 54.3096 34.199 54.4215 34.3616 55.5612C34.5241 56.7014 35.0126 66.9599 42.0145 72.4966C42.6531 73.0018 36.8041 71.6818 36.8041 71.6818L31.5931 63.5404" fill="#F7E4CD"/>
<path fill-rule="evenodd" clip-rule="evenodd" d="M61.0672 53.2818C61.0672 53.2818 61.4468 48.346 62.776 48.7256C64.1052 49.1051 64.1052 50.4343 64.1052 50.4343C64.1052 50.4343 60.8772 52.5227 61.0672 53.2818Z" fill="#F7E4CD"/>
<path d="M74.5816 35.2072C74.5816 35.2072 71.8978 35.7739 71.6506 38.1382C71.4034 40.5031 74.5816 38.6267 75.0701 38.464" fill="#F7E4CD"/>
<path d="M54.8787 35.3704C54.8787 35.3704 51.296 35.8589 51.296 38.1382C51.296 40.4181 55.3673 40.2554 56.507 39.2784" fill="#F7E4CD"/>
<path fill-rule="evenodd" clip-rule="evenodd" d="M32.7329 45.9543C32.7329 45.9543 26.5449 42.2089 25.8938 45.7916C25.2426 49.3738 23.7767 51.9795 26.8708 55.7243L24.754 55.0732L22.8 50.0254L22.149 45.1404L25.8938 41.2319L30.1276 41.5577L32.5701 43.5117L32.7329 45.9543Z" fill="#F7E4CD"/>
<path fill-rule="evenodd" clip-rule="evenodd" d="M35.6639 35.6957C35.6639 35.6957 38.4321 21.3664 52.4362 18.598C63.9655 16.3192 70.0219 19.0865 72.3018 21.6917C72.3018 21.6917 62.0432 9.47963 52.273 13.2245C42.5029 16.9699 35.3386 23.8089 35.5011 28.205C35.7784 35.6927 35.6639 35.6957 35.6639 35.6957Z" fill="#F7E4CD"/>
<path fill-rule="evenodd" clip-rule="evenodd" d="M73.442 23.3199C73.442 23.3199 68.7201 23.1573 68.5569 27.3911C68.5569 27.3911 68.5564 28.0423 68.8823 28.6935C68.8823 28.6935 72.6281 24.4596 74.9075 26.7395" fill="#F7E4CD"/>
<path fill-rule="evenodd" clip-rule="evenodd" d="M52.7644 29.1346C52.7644 29.1346 51.9515 22.636 46.411 26.4141C42.8287 28.8566 43.1546 32.2761 43.8057 32.9273C44.457 33.579 44.2799 34.8906 44.7757 33.9903C45.2712 33.09 45.1081 30.159 46.8995 29.3451C48.6908 28.5308 51.6271 27.6212 52.7644 29.1346Z" fill="#F7E4CD"/>
<path fill-rule="evenodd" clip-rule="evenodd" d="M37.4552 73.1473L22.149 79.9864C22.149 79.9864 28.4995 105.226 25.2426 113.042L22.9628 112.228L22.8 102.621L18.5669 84.3834L16.7754 79.3352L32.7329 68.5886L37.4552 73.1473Z" fill="#49728B"/>
<path fill-rule="evenodd" clip-rule="evenodd" d="M65.7886 99.3639L74.9075 98.8754C74.9075 98.8754 78.6523 89.431 78.6523 88.9425C78.6523 88.454 81.9092 75.2645 81.9092 75.2645L74.5816 67.6116L73.1161 66.3088L69.2081 70.2168V85.3604L65.7886 99.3639Z" fill="#335061"/>
<path fill-rule="evenodd" clip-rule="evenodd" d="M70.0224 69.7283L81.4207 78.1955L81.7465 74.2875L73.1161 66.3088L70.0224 69.7283Z" fill="#49728B"/>
<path d="M65.4144 98.063L61.8322 88.9441L58.0868 83.5705C58.0868 83.5705 58.9007 81.2907 60.0408 81.2907C61.181 81.2907 63.7862 81.2907 63.7862 81.2907L67.3684 82.5935L67.0431 88.6183L65.4144 98.063Z" fill="white"/>
<path fill-rule="evenodd" clip-rule="evenodd" d="M66.1144 94.9673C66.1144 94.9673 61.5547 86.1747 61.5547 84.8719C61.5547 84.8719 62.3686 82.9179 63.5087 83.4064C64.6489 83.8949 67.0914 85.1973 67.0914 85.1973V82.1036L61.5547 80.9634L57.8098 81.4519L64.1604 96.4328L65.4628 96.596" fill="#DCD9D8"/>
<path d="M46.2001 73.4751L41.6891 72.9846L37.4551 71.6818V73.1473L39.5239 75.4286L46.0372 78.3596" fill="white"/>
<path fill-rule="evenodd" clip-rule="evenodd" d="M38.9212 73.9631C38.9212 73.9631 43.9694 76.0803 45.5977 75.5918L45.7597 77.5439L41.2012 76.5688L38.4327 74.6148L38.9212 73.9631Z" fill="#DCD9D8"/>
<path fill-rule="evenodd" clip-rule="evenodd" d="M71.9105 81.8451C69.1475 81.764 66.6513 81.4358 64.4657 80.8193C64.6142 79.9233 64.3362 79.044 64.5595 78.3987C65.1686 77.9601 66.1896 77.9669 67.1105 77.8638C66.3142 77.4725 65.1955 77.3177 64.2766 77.5438C64.2551 76.922 63.9762 76.5366 63.8072 76.05C65.3606 75.4955 69.0278 71.8606 71.0908 73.0643C72.0737 73.6368 72.4913 76.9068 72.5675 78.4969C72.631 79.8159 72.4478 81.1466 71.9105 81.8451Z" fill="#D33833"/>
<path d="M71.9105 81.8451C69.1475 81.764 66.6513 81.4358 64.4657 80.8193C64.6142 79.9233 64.3362 79.044 64.5595 78.3987C65.1686 77.9601 66.1896 77.9669 67.1105 77.8638C66.3142 77.4725 65.1955 77.3177 64.2766 77.5438C64.2551 76.922 63.9762 76.5366 63.8072 76.05C65.3606 75.4955 69.0278 71.8606 71.0908 73.0643C72.0737 73.6368 72.4913 76.9068 72.5675 78.4969C72.631 79.8159 72.4478 81.1466 71.9105 81.8451Z" stroke="#D33833" stroke-width="2.5"/>
<path fill-rule="evenodd" clip-rule="evenodd" d="M58.6979 77.3284C58.6906 77.5375 58.6818 77.7481 58.6735 77.9591C57.8108 78.5258 56.4181 78.5189 55.4714 78.9952C56.867 79.0563 57.9657 79.3924 58.9163 79.8662C58.8953 80.3928 58.8753 80.9189 58.8547 81.4455C57.2735 82.5281 55.829 84.1401 53.9672 85.1553C53.0869 85.6354 49.9975 86.8708 49.0609 86.6525C48.531 86.5294 48.4833 85.8718 48.2715 85.252C47.8202 83.9247 46.7812 81.8119 46.6906 79.8139C46.5751 77.2903 46.3204 73.0609 49.04 73.5806C51.234 73.9993 53.7859 75.01 55.4846 75.9381C56.5226 76.5058 57.123 77.2073 58.6979 77.3284Z" fill="#D33833"/>
<path d="M58.6979 77.3284C58.6906 77.5375 58.6818 77.7481 58.6735 77.9591C57.8108 78.5258 56.4181 78.5189 55.4714 78.9952C56.867 79.0563 57.9657 79.3924 58.9163 79.8662C58.8953 80.3928 58.8753 80.9189 58.8547 81.4455C57.2735 82.5281 55.829 84.1401 53.9672 85.1553C53.0869 85.6354 49.9975 86.8708 49.0609 86.6525C48.531 86.5294 48.4833 85.8718 48.2715 85.252C47.8202 83.9247 46.7812 81.8119 46.6906 79.8139C46.5751 77.2903 46.3204 73.0609 49.04 73.5806C51.234 73.9993 53.7859 75.01 55.4846 75.9381C56.5226 76.5058 57.123 77.2073 58.6979 77.3284Z" stroke="#D33833" stroke-width="2.5"/>
<path fill-rule="evenodd" clip-rule="evenodd" d="M60.2685 80.3396C60.0272 78.9649 59.7482 78.5726 59.8562 77.3734C63.5224 74.9289 64.2107 81.5721 60.2685 80.3396Z" fill="#D33833"/>
<path d="M60.2685 80.3396C60.0272 78.9649 59.7482 78.5726 59.8562 77.3734C63.5224 74.9289 64.2107 81.5721 60.2685 80.3396Z" stroke="#D33833" stroke-width="2.5"/>
<path fill-rule="evenodd" clip-rule="evenodd" d="M65.5771 81.4539C65.5771 81.4539 64.4369 79.8252 65.2512 79.3367C66.0656 78.8482 66.8799 79.3372 67.3684 78.5228C67.8569 77.7085 67.3684 77.22 67.5311 76.243C67.6937 75.266 68.5086 75.1028 69.3224 74.9401C70.1363 74.7775 72.4166 74.4516 72.7419 75.266L71.7649 72.335L69.8109 71.6838L63.623 75.266L63.2972 77.0573V80.6395" fill="#EF3D3A"/>
<path fill-rule="evenodd" clip-rule="evenodd" d="M48.4795 86.8274C48.2839 84.2862 48.0769 81.7484 47.8466 79.2096C47.5019 75.4189 48.7571 76.0803 52.0431 76.0803C52.545 76.0803 55.1333 76.6787 55.3185 77.0573C56.2066 78.8711 53.8334 78.4681 56.3414 79.8359C58.4586 80.9902 62.1985 79.1349 61.3432 76.5688C60.8644 75.9982 58.8489 76.391 58.1264 76.0163C56.8543 75.3568 55.5823 74.6973 54.31 74.0379C52.6915 73.1981 48.9508 71.9739 47.2252 73.1473C42.8529 76.1208 47.5012 83.5505 49.0609 86.6524" fill="#EF3D3A"/>
<path fill-rule="evenodd" clip-rule="evenodd" d="M52.7644 29.1346C48.3263 28.1009 46.121 30.9919 44.7757 33.9903C43.5744 33.6992 44.0524 32.0656 44.3559 31.2332C45.1503 29.0486 48.3517 26.1406 50.9675 26.5348C52.0931 26.7043 53.6164 27.7336 52.7644 29.1346Z" fill="#231F20"/>
<path fill-rule="evenodd" clip-rule="evenodd" d="M74.3887 34.1887C74.4586 34.1918 74.5294 34.194 74.5992 34.1969C75.6021 36.2804 76.4702 38.4875 77.7354 40.3267C76.8879 42.3007 71.3175 44.0476 71.4035 40.503C72.6081 39.9764 74.6877 40.3956 75.7555 39.7229C75.1381 38.0283 74.247 36.5858 74.3887 34.1887Z" fill="#231F20"/>
<path fill-rule="evenodd" clip-rule="evenodd" d="M55.0366 34.2429C55.9882 35.9873 56.2979 37.8202 57.6506 39.1387C58.2598 39.7322 59.4444 40.4557 58.8572 42.1063C58.7199 42.4957 57.717 43.3637 57.1382 43.5342C55.0234 44.1585 50.0958 43.6632 51.7645 41.0267C53.5134 41.1083 55.8641 42.1625 57.1714 40.8929C56.1675 39.2881 54.3778 36.1134 55.0366 34.2429Z" fill="#231F20"/>
<path fill-rule="evenodd" clip-rule="evenodd" d="M73.5949 51.9726C70.4108 54.018 66.8603 56.2421 61.6431 55.7263C60.5284 54.7571 60.1034 52.6003 61.1864 51.1759C61.7501 52.1451 61.3959 53.9276 62.967 54.1958C65.9273 54.7024 69.3727 52.3849 71.5021 51.575C72.8225 49.3489 71.3883 48.5301 70.1988 47.0973C67.7636 44.1619 64.497 40.5235 64.6157 36.129C65.6 35.4153 65.685 37.2183 65.8262 37.5466C67.0978 40.5226 70.2979 44.3285 72.6335 46.8756C73.207 47.5028 74.1513 48.1046 74.2563 48.5194C74.5592 49.7255 73.4683 51.1705 73.5949 51.9726Z" fill="#231F20"/>
<path fill-rule="evenodd" clip-rule="evenodd" d="M31.6185 49.8193C30.6205 49.2497 30.3829 46.7408 29.2113 46.6694C27.5368 46.5678 27.8421 49.9243 27.8488 51.8871C26.6963 50.8408 26.4936 47.6191 27.3403 45.9645C26.3753 45.4907 25.9444 46.4872 25.4091 46.8385C26.0971 41.8411 32.7196 44.5205 31.6185 49.8193Z" fill="#231F20"/>
<path fill-rule="evenodd" clip-rule="evenodd" d="M75.6222 54.0537C74.14 56.8748 72.0434 59.9816 67.6942 60.072C67.6058 59.161 67.5379 57.7746 67.6989 57.226C71.0237 56.9065 73.0766 55.2143 75.6222 54.0537Z" fill="#231F20"/>
<path fill-rule="evenodd" clip-rule="evenodd" d="M54.7858 55.8826C57.5597 57.3413 62.6577 57.4981 66.428 57.3877C66.6303 58.2138 66.6254 59.2343 66.6332 60.2415C61.7867 60.4834 56.0566 59.2841 54.7858 55.8826Z" fill="#231F20"/>
<path fill-rule="evenodd" clip-rule="evenodd" d="M54.2586 58.6026C56.1768 63.4188 62.7696 62.8643 68.3293 62.7314C68.0845 63.3567 67.554 64.0953 66.8945 64.3626C65.113 65.0875 60.1991 65.6376 57.7258 64.324C56.1572 63.4901 55.1494 61.6059 54.29 60.5014C53.875 59.968 51.8084 58.6055 54.2586 58.6026Z" fill="#231F20"/>
<path fill-rule="evenodd" clip-rule="evenodd" d="M73.3633 85.1688C71.1123 89.0242 68.9585 92.984 66.2878 96.3846C67.4075 93.0925 67.8867 87.5825 68.0557 83.382C70.3981 82.2858 72.4039 83.6287 73.3633 85.1688Z" fill="#81B0C4"/>
<path fill-rule="evenodd" clip-rule="evenodd" d="M65.2976 72.9451C64.1384 73.7018 63.1511 74.6465 62.0378 75.4545C59.5689 75.5767 58.2217 75.2836 56.4078 73.8659C56.4376 73.7521 56.6198 73.8029 56.6267 73.6632C59.2695 74.841 62.6289 73.1835 65.2976 72.9451Z" fill="#F0D6B7"/>
<path fill-rule="evenodd" clip-rule="evenodd" d="M51.4239 90.9601C52.15 87.8136 54.9951 86.184 57.5788 84.4513C60.2455 87.8357 61.8673 92.1882 63.6533 96.3884C59.4336 95.1164 55.1221 93.0524 51.4239 90.9601Z" fill="#81B0C4"/>
<path fill-rule="evenodd" clip-rule="evenodd" d="M66.2624 116.096C66.1545 118.669 66.5155 122.794 66.6361 125.493C68.3464 125.495 69.0796 125.118 70.3561 124.688C70.5002 121.513 69.3507 118.575 69.0195 115.675C68.3439 115.495 67.1036 116.152 66.2624 116.096ZM39.6321 101.466C40.7598 111.834 42.3932 120.549 45.3891 129.729C52.0383 131.748 60.054 131.924 65.9312 130.102C64.8521 124.921 65.3235 118.612 64.6929 113.083C64.2175 108.927 64.4598 104.745 63.8082 100.505C56.6868 99.0235 46.6209 100.159 39.6321 101.466ZM65.492 100.57C65.432 105.023 65.6914 109.415 66.0314 113.873C67.7411 113.616 68.9013 113.445 70.4899 113.097C69.9741 108.805 70.0376 103.975 68.9868 100.179C67.7724 100.19 66.703 100.165 65.492 100.57ZM74.1654 99.8524C73.354 99.6663 72.4093 99.8451 71.634 99.8602C71.9984 103.49 72.8826 107.495 73.1938 111.305C74.4136 111.343 75.0653 110.768 76.0686 110.574C76.1224 107.23 75.7765 102.622 74.1654 99.8524ZM87.2984 111.851C89.841 111.234 91.4399 108.12 90.7286 104.922C90.2514 102.772 89.4014 98.7248 88.4918 97.3498C87.8196 96.3327 85.997 95.0011 84.5417 95.9331C82.1744 97.449 78.0041 97.889 76.2777 99.7239C77.1434 102.606 77.412 106.565 77.7691 110.217C80.7265 110.401 84.3654 109.403 86.825 110.462C85.1079 111.018 82.8799 111.023 81.3963 111.834C82.6087 112.419 85.4474 112.301 87.2984 111.851ZM63.6533 96.3884C61.8673 92.1882 60.2455 87.8358 57.5788 84.4513C54.9951 86.184 52.15 87.8136 51.4239 90.9601C55.1221 93.0524 59.4336 95.1164 63.6533 96.3884ZM68.0557 83.382C67.8867 87.5825 67.4075 93.0925 66.2878 96.3846C68.9585 92.984 71.1123 89.0242 73.3633 85.1688C72.4039 83.6287 70.3981 82.2858 68.0557 83.382ZM63.0652 81.6087C62.0535 81.4998 61.1947 82.7718 59.8791 82.2218C59.5777 82.5549 59.3037 82.9159 58.9964 83.2413C61.902 86.7429 63.2225 91.711 65.4666 95.826C66.6708 91.8731 66.5321 87.5425 66.7973 83.2281C65.1428 83.3331 64.2249 81.7318 63.0652 81.6087ZM59.8562 77.3734C59.7482 78.5726 60.0272 78.9649 60.2685 80.3396C64.2107 81.5721 63.5224 74.9289 59.8562 77.3734ZM55.4846 75.9381C53.7859 75.01 51.234 73.9993 49.04 73.5806C46.3204 73.0604 46.5751 77.2903 46.6906 79.8139C46.7812 81.8119 47.8202 83.9247 48.2715 85.252C48.4833 85.8718 48.531 86.5294 49.0609 86.6525C49.9975 86.8708 53.0869 85.6354 53.9672 85.1553C55.829 84.1401 57.2735 82.5281 58.8547 81.4455C58.8753 80.9189 58.8953 80.3928 58.9163 79.8662C57.9657 79.3924 56.867 79.0563 55.4714 78.9952C56.4181 78.5189 57.8108 78.5258 58.6735 77.9591C58.6818 77.7481 58.6906 77.5375 58.6979 77.3284C57.123 77.2073 56.5226 76.5058 55.4846 75.9381ZM39.2596 72.991C37.8498 74.4223 43.2138 76.3734 44.9216 76.4784C44.9121 75.5728 45.4378 74.7188 45.3319 74.0691C43.3035 73.713 40.6377 73.948 39.2596 72.991ZM56.6267 73.6632C56.6198 73.8029 56.4376 73.7521 56.4078 73.8659C58.2216 75.2836 59.5689 75.5767 62.0378 75.4545C63.1511 74.6465 64.1384 73.7018 65.2976 72.9451C62.6289 73.1835 59.2695 74.841 56.6267 73.6632ZM72.5675 78.4969C72.4913 76.9069 72.0737 73.6368 71.0908 73.0643C69.0278 71.8601 65.3606 75.4956 63.8072 76.05C63.9762 76.5366 64.2552 76.922 64.2767 77.5439C65.1955 77.3177 66.3142 77.4725 67.1105 77.8638C66.1896 77.9669 65.1687 77.9601 64.5595 78.3987C64.3363 79.0441 64.6142 79.9234 64.4657 80.8193C66.6513 81.4358 69.1475 81.764 71.9105 81.8451C72.4479 81.1466 72.631 79.8159 72.5675 78.4969ZM36.8861 74.3754C36.4434 74.0599 33.4485 70.1631 33.0382 70.3247C27.6189 72.462 22.5516 76.1575 18.0234 79.6527C22.3407 88.9168 24.0835 100.267 24.3915 111.206C29.3372 113.519 33.6813 116.854 40.3925 117.202C39.6159 111.707 38.9069 106.805 38.4661 101.632C36.7798 100.921 34.3606 101.664 32.7825 101.412C32.7691 99.5099 35.1926 100.579 35.3944 99.3C35.5466 98.3327 34.061 98.2594 34.5447 96.7363C35.7784 97.1847 36.4263 98.1752 37.742 98.5472C38.9442 95.9171 37.7251 91.2635 37.8984 89.0652C37.9312 88.6525 38.1045 86.7786 39.0291 87.1074C39.8473 87.3984 38.9823 92.0911 39.072 94.1716C39.1537 96.0884 38.8405 97.9432 39.6168 99.1465C46.1019 98.2638 52.6919 97.6932 59.7086 97.5007C58.165 96.8383 56.3311 96.2115 54.3205 95.0782C53.2306 94.4638 49.7949 93.1853 49.4804 92.15C48.9785 90.5004 50.797 89.6217 51.1081 88.2075C47.8345 89.9928 47.1959 86.4962 46.4215 84.019C45.7199 81.7753 45.3205 80.0992 45.1483 78.8052C42.3284 77.4608 39.3134 76.0994 36.8861 74.3754ZM69.7034 70.7962C74.2187 68.6067 75.0325 78.9791 73.2627 82.3205C73.5362 83.317 74.4771 83.6985 74.8611 84.5944C72.3414 89.1082 69.5427 93.3215 66.9717 97.7821C68.8842 96.5916 71.6159 97.5692 73.8665 96.6781C74.6891 96.3527 75.2846 94.4695 75.9074 92.963C77.6206 88.8181 79.4193 83.5925 80.2195 79.6371C80.4002 78.7358 80.8926 76.772 80.7822 75.9699C80.5853 74.5337 78.6367 73.4688 77.6455 72.5807C75.8195 70.9403 74.6696 69.4967 72.7649 67.9628C71.9926 69.103 70.3351 69.869 69.7034 70.7962ZM26.5598 30.7545C24.4083 33.1218 24.8586 37.5574 25.1191 40.7131C29.008 38.2667 34.1698 40.9066 34.1211 45.0676C35.9778 45.0183 34.8147 42.7487 34.4789 41.2866C33.3813 36.511 36.328 31.3226 34.6125 26.9554C31.2817 27.2079 28.5453 28.5684 26.5598 30.7545ZM41.9544 17.0148C37.0836 18.3953 30.8412 21.9345 28.8398 26.3101C30.3896 26.0849 31.4655 25.3033 32.9943 25.2065C33.5721 25.1689 34.3291 25.4488 34.9932 25.2837C36.3165 24.9554 37.4334 21.9883 38.4318 20.8843C39.405 19.8061 40.5747 19.3455 41.3752 18.3626C41.8895 18.1144 42.6499 18.1315 42.6791 17.3592C42.4562 17.1208 42.2215 16.9391 41.9544 17.0148ZM67.3093 18.3133C62.2538 15.4609 53.6966 13.3154 48.3188 15.9963C43.9796 18.1599 38.114 21.7396 36.1143 26.2759C37.9824 30.6534 35.5609 34.6645 35.4063 39.1089C35.3242 41.4737 36.5198 43.5381 36.6114 46.1125C35.9721 47.1672 34.019 47.2972 32.667 47.2249C32.2119 44.9475 31.4152 42.3877 29.0701 42.1308C25.7517 41.7678 23.3254 44.5142 23.1746 47.3841C22.9962 50.7592 25.7669 56.353 29.694 55.9647C31.2111 55.8147 31.5838 54.294 33.2367 54.3096C34.1325 56.0971 31.8547 56.6584 31.6204 57.9368C31.5593 58.267 31.8093 59.5576 31.9547 60.1629C32.668 63.11 34.2581 66.9243 35.8233 69.168C37.8097 72.014 41.7124 72.4429 45.9111 72.7218C46.661 71.1064 49.4235 71.2392 51.2235 71.6618C49.0663 70.8074 47.0607 68.7361 45.3987 66.9028C43.4895 64.7993 41.5556 62.5429 41.4579 59.7936C45.0657 64.7988 48.0464 69.1699 54.6068 71.3716C59.5709 73.0364 65.3685 70.6086 69.1827 67.9301C70.7654 66.8168 71.7102 65.0504 72.8352 63.4334C77.0447 57.3784 79.0089 48.7358 78.5771 40.3589C78.3993 36.9042 78.4071 33.4613 77.2479 31.137C76.0364 28.7067 71.9388 26.5323 69.5403 28.7306C69.0957 26.3672 71.5348 24.9056 74.3999 25.7561C72.357 23.1196 70.2129 19.9517 67.3093 18.3133ZM76.7281 96.2624C80.6787 94.2985 88.0599 90.9763 90.5367 96.2697C91.4507 98.2209 92.5229 101.519 92.9963 103.533C93.665 106.375 92.2713 112.347 89.3506 113.301C86.7708 114.143 83.7606 114.092 80.6533 113.468C80.2874 113.163 79.8799 112.633 79.5952 112.08C77.3764 111.994 75.2988 112.199 73.546 113.111C73.7121 114.752 72.6022 115.015 71.5617 115.353C70.7904 118.412 73.1049 122.406 72.5509 125.194C72.1557 127.181 69.7113 127.489 67.9145 127.86C67.8559 128.964 67.9932 129.886 68.1158 130.82C67.705 132.334 65.8623 133.196 64.1164 133.407C58.3721 134.097 49.6502 134.408 44.1249 132.421C42.5831 128.639 41.3685 124.039 40.0843 119.721C34.6955 120.296 30.3371 117.396 26.2284 115.495C24.8058 114.836 22.8378 114.472 22.3064 113.34C21.7912 112.244 22.002 110.143 21.8742 108.158C21.5488 103.089 21.2702 98.1993 19.9316 93.0089C19.3305 90.6798 18.2829 88.6246 17.552 86.3804C16.8765 84.3004 15.6963 81.7298 15.3885 79.6557C14.9321 76.5815 17.8268 76.4105 19.6778 75.0784C22.5392 73.0184 24.7852 71.8792 27.8841 70.0199C28.8019 69.4694 31.5699 68.0757 31.8847 67.4338C32.5106 66.1612 30.8104 64.367 30.3558 63.3694C29.6368 61.7921 29.2618 60.4521 29.1588 58.8957C26.5592 58.4849 24.5886 56.9378 23.3983 55.1933C21.4292 52.3063 20.0636 46.965 21.7673 42.9021C21.9009 42.5821 22.5672 41.9529 22.6655 41.4615C22.8594 40.4938 22.3006 39.2071 22.2659 38.1778C22.0869 32.8971 23.1594 28.3471 26.7144 26.7546C28.1576 21.0054 33.3229 19.0939 38.1894 16.2366C40.0086 15.1688 42.0139 14.4863 44.0849 13.7243C51.5141 10.9901 62.9127 11.505 69.0786 16.1682C71.6931 18.1457 75.8723 22.3209 77.3671 25.3438C81.3152 33.3245 81.0348 46.6621 78.2733 56.3702C77.902 57.6735 77.3637 59.5894 76.6119 61.155C76.0877 62.2483 74.4585 64.4358 74.6564 65.4011C74.8601 66.3991 78.371 69.0649 79.1238 69.7908C80.4793 71.0985 83.0547 72.8342 83.2633 74.4844C83.4875 76.2405 82.4895 78.643 81.9839 80.3376C80.2937 85.993 78.6445 91.2206 76.7281 96.2624Z" fill="#231F20"/>
<path fill-rule="evenodd" clip-rule="evenodd" d="M50.3719 57.1146C50.5862 56.8293 51.7645 56.396 53.4132 57.1898C53.4132 57.1898 51.4592 57.5157 51.6218 60.7735L50.8075 60.6103C50.8075 60.6103 49.966 57.6564 50.3719 57.1146Z" fill="#F7E4CD"/>
<path fill-rule="evenodd" clip-rule="evenodd" d="M64.6489 85.1161C64.6489 85.6106 64.2478 86.0115 63.753 86.0115C63.2586 86.0115 62.8575 85.6106 62.8575 85.1161C62.8575 84.6218 63.2586 84.2202 63.753 84.2202C64.2478 84.2202 64.6489 84.6218 64.6489 85.1161Z" fill="#1D1919"/>
<path d="M47.9514 85.9076H19.4319C19.2058 85.9076 19.0225 86.0909 19.0225 86.317V87.2148C19.0225 87.4409 19.2058 87.6242 19.4319 87.6242H47.9514C48.1775 87.6242 48.3608 87.4409 48.3608 87.2148V86.317C48.3608 86.0909 48.1775 85.9076 47.9514 85.9076Z" fill="black"/>
<path d="M78.5382 85.9076H53.2958C53.0697 85.9076 52.8864 86.0909 52.8864 86.317V87.2148C52.8864 87.4409 53.0697 87.6242 53.2958 87.6242H78.5382C78.7643 87.6242 78.9476 87.4409 78.9476 87.2148V86.317C78.9476 86.0909 78.7643 85.9076 78.5382 85.9076Z" fill="black"/>
<path d="M47.1711 85.0743H19.4319C19.2058 85.0743 19.0225 85.2576 19.0225 85.4837V86.3815C19.0225 86.6076 19.2058 86.7909 19.4319 86.7909H47.1711C47.3973 86.7909 47.5805 86.6076 47.5805 86.3815V85.4837C47.5805 85.2576 47.3973 85.0743 47.1711 85.0743Z" fill="black"/>
<path d="M78.5382 85.0743H55.7927C55.5666 85.0743 55.3833 85.2576 55.3833 85.4837V86.3815C55.3833 86.6076 55.5666 86.7909 55.7927 86.7909H78.5382C78.7643 86.7909 78.9476 86.6076 78.9476 86.3815V85.4837C78.9476 85.2576 78.7643 85.0743 78.5382 85.0743Z" fill="black"/>
</g>
</g>
<defs>
<clipPath id="clip0_310_11">
<rect width="100" height="100" fill="white"/>
</clipPath>
<clipPath id="clip1_310_11">
<rect width="75" height="75" fill="white" transform="translate(12 12)"/>
</clipPath>
</defs>
</svg>
