<svg width="100" height="100" viewBox="0 0 100 100" fill="none" xmlns="http://www.w3.org/2000/svg">
<rect x="1.5" y="1.5" width="97" height="97" rx="18.5" fill="white" stroke="black" stroke-width="3"/>
<path d="M56.772 54.9412C56.6742 54.9219 56.5744 54.9143 56.4747 54.9186C56.3026 54.9278 56.1341 54.9715 55.9793 55.0473C55.6789 55.1923 55.446 55.4477 55.3292 55.7602C55.2124 56.0728 55.2207 56.4183 55.3524 56.7248L55.3434 56.7377L58.3084 63.9008C61.1451 62.0907 63.2976 59.3868 64.4257 56.2165L56.7852 54.9252L56.772 54.9412ZM44.8836 55.9565C44.8193 55.6741 44.6621 55.4214 44.4372 55.239C44.2123 55.0566 43.9327 54.9549 43.6431 54.9503C43.5576 54.9492 43.4722 54.9568 43.3882 54.9729L43.3754 54.9572L35.8013 56.2429C36.9387 59.3883 39.0823 62.0703 41.8995 63.873L44.8346 56.7804L44.8116 56.7526C44.92 56.5017 44.9452 56.2227 44.8836 55.9565ZM51.2269 58.7379C51.1163 58.5316 50.9518 58.3593 50.7509 58.2393C50.55 58.1192 50.3203 58.056 50.0862 58.0563C49.8522 58.0565 49.6227 58.1204 49.4221 58.2409C49.2215 58.3614 49.0573 58.5341 48.9472 58.7406H48.941L45.2163 65.4758C47.8832 66.3838 50.7502 66.5312 53.4962 65.9017C54.0054 65.7858 54.5028 65.6467 54.9884 65.4845L51.2551 58.7375L51.2269 58.7379ZM63.018 43.0925L57.2872 48.2217L57.2904 48.2381C57.1143 48.392 56.9832 48.5907 56.911 48.8131C56.8388 49.0355 56.8281 49.2734 56.8802 49.5014C56.9322 49.7293 57.045 49.939 57.2066 50.108C57.3682 50.2771 57.5726 50.3992 57.798 50.4615L57.8049 50.4924L65.2278 52.6306C65.5486 49.2957 64.7728 45.9472 63.018 43.0932V43.0925ZM52.3711 43.6672C52.3819 43.9008 52.4558 44.1271 52.5848 44.3222C52.7139 44.5172 52.8933 44.6736 53.1041 44.7749C53.3149 44.8761 53.5492 44.9184 53.7821 44.8972C54.015 44.876 54.2378 44.7922 54.4269 44.6546L54.4495 44.664L60.7202 40.2179C58.3332 37.88 55.2443 36.3909 51.9285 35.9797L52.3642 43.6651L52.3711 43.6672ZM45.7305 44.6827C45.9197 44.8203 46.1426 44.9039 46.3755 44.9248C46.6085 44.9457 46.8427 44.903 47.0533 44.8014C47.2639 44.6997 47.443 44.5428 47.5715 44.3475C47.7001 44.1521 47.7732 43.9255 47.7832 43.6919L47.8152 43.6769L48.2508 35.9794C47.7249 36.0426 47.2026 36.1326 46.6859 36.2492C43.9372 36.867 41.4159 38.2409 39.4067 40.2158L45.7184 44.69L45.7305 44.6827ZM42.3657 50.499C42.5917 50.4374 42.7966 50.3156 42.9587 50.1466C43.1208 49.9776 43.234 49.7677 43.2862 49.5394C43.3384 49.3112 43.3276 49.073 43.255 48.8503C43.1824 48.6277 43.0507 48.4289 42.874 48.2753L42.8803 48.2447L37.1179 43.0907C35.36 45.952 34.6054 49.3174 34.9735 52.6553L42.3598 50.524L42.3657 50.499ZM47.9626 52.7631L50.0883 53.7852L52.2077 52.7651L52.7341 50.4771L51.2673 48.6428H48.9065L47.4355 50.4743L47.9626 52.7631Z" fill="#326CE5"/>
<path d="M85.2292 57.271L79.172 30.9607C79.0091 30.28 78.6972 29.644 78.2587 29.0985C77.8202 28.553 77.2661 28.1117 76.6364 27.8063L52.118 16.1C51.4826 15.7968 50.7874 15.6394 50.0833 15.6394C49.3792 15.6394 48.684 15.7968 48.0485 16.1L23.535 27.8125C22.9051 28.1177 22.3509 28.559 21.9122 29.1044C21.4736 29.6499 21.1616 30.2859 20.9987 30.9666L14.9512 57.2762C14.8021 57.9412 14.8016 58.631 14.9498 59.2962C14.9935 59.4989 15.0505 59.6984 15.1206 59.8935C15.2389 60.2265 15.3956 60.5445 15.5875 60.8413C15.6706 60.9682 15.7582 61.0916 15.8535 61.2112L32.8214 82.3074C32.8954 82.3992 32.9771 82.483 33.0581 82.5682C33.3244 82.8517 33.625 83.1008 33.9531 83.3098C34.368 83.5709 34.8201 83.7675 35.294 83.8928C35.6827 83.9994 36.0836 84.0547 36.4866 84.0573H36.7505L63.6966 84.051C63.8605 84.0503 64.0241 84.0406 64.1869 84.0221C64.4204 83.9958 64.6515 83.9518 64.8784 83.8907C65.041 83.8479 65.2013 83.7966 65.3585 83.7371C65.4813 83.6901 65.6037 83.6432 65.7219 83.5865C65.8989 83.5017 66.0706 83.4063 66.2361 83.3007C66.663 83.0323 67.0432 82.6958 67.3615 82.3046L67.8788 81.6614L84.3235 61.2042C84.6387 60.809 84.8863 60.3644 85.0564 59.8883C85.1274 59.6925 85.1855 59.4923 85.2302 59.2889C85.3789 58.6237 85.3784 57.9339 85.2289 57.2689L85.2292 57.271ZM59.7978 67.5038C59.8667 67.7061 59.9483 67.9039 60.0422 68.0959C59.8922 68.3583 59.8514 68.6693 59.9285 68.9616C60.2853 69.7786 60.7211 70.5587 61.2296 71.291C61.5142 71.6653 61.7769 72.0559 62.0163 72.4606C62.0754 72.5701 62.1526 72.7398 62.2086 72.8555C62.3142 73.032 62.3817 73.2287 62.4068 73.4329C62.4318 73.637 62.4139 73.8442 62.3541 74.041C62.2943 74.2378 62.194 74.42 62.0595 74.5757C61.9251 74.7314 61.7596 74.8573 61.5737 74.9452C61.3877 75.0331 61.1854 75.0811 60.9797 75.0861C60.7741 75.0912 60.5697 75.0531 60.3796 74.9744C60.1896 74.8957 60.0181 74.7781 59.8762 74.6292C59.7343 74.4802 59.6252 74.3032 59.5558 74.1096C59.4999 73.9949 59.422 73.8419 59.3744 73.7334C59.2067 73.2937 59.0645 72.8447 58.9485 72.3886C58.694 71.5353 58.3568 70.7089 57.9416 69.9212C57.761 69.6776 57.4921 69.5145 57.1927 69.4667C57.1458 69.3857 56.9719 69.0669 56.8787 68.9025C52.5141 70.5554 47.6936 70.543 43.3375 68.8677L43.0055 69.4692C42.7684 69.506 42.548 69.6135 42.3731 69.7776C41.8727 70.5987 41.4902 71.486 41.2369 72.4136C41.1219 72.8697 40.9805 73.3188 40.8134 73.7584C40.7664 73.8662 40.6879 74.0171 40.6319 74.1315V74.1346L40.6295 74.1374C40.5602 74.3313 40.4511 74.5086 40.3091 74.6577C40.1671 74.8069 39.9955 74.9246 39.8052 75.0034C39.6149 75.0821 39.4103 75.1201 39.2044 75.1148C38.9986 75.1096 38.7961 75.0613 38.6101 74.973C38.424 74.8847 38.2586 74.7584 38.1244 74.6023C37.9902 74.4461 37.8902 74.2635 37.8309 74.0663C37.7715 73.8691 37.7542 73.6617 37.78 73.4574C37.8058 73.2531 37.8741 73.0565 37.9805 72.8802C38.0358 72.7637 38.1099 72.5951 38.1683 72.4856C38.4076 72.0799 38.6702 71.6883 38.9547 71.3129C39.4724 70.5613 39.9171 69.7619 40.2828 68.9258C40.3217 68.6423 40.2763 68.3536 40.1521 68.0959L40.4191 67.4561C36.4031 65.0859 33.3933 61.328 31.9574 56.8913L31.318 57.0002C31.07 56.8241 30.7775 56.7211 30.4739 56.7029C29.599 56.8703 28.7425 57.1224 27.9164 57.4556C27.4874 57.6485 27.0478 57.8169 26.5997 57.9597C26.4937 57.989 26.3407 58.0182 26.2197 58.0446C26.21 58.0481 26.2016 58.0522 26.1919 58.0547C26.1844 58.0558 26.1769 58.0565 26.1693 58.0567C25.9746 58.1208 25.7686 58.1435 25.5645 58.1234C25.3605 58.1032 25.1629 58.0407 24.9844 57.9398C24.8059 57.8389 24.6505 57.7019 24.528 57.5375C24.4055 57.373 24.3188 57.1848 24.2732 56.9849C24.2277 56.785 24.2243 56.5778 24.2635 56.3766C24.3026 56.1753 24.3834 55.9845 24.5005 55.8162C24.6177 55.6479 24.7687 55.506 24.9438 55.3994C25.119 55.2929 25.3145 55.2241 25.5178 55.1975L25.539 55.1923L25.5518 55.1888C25.6746 55.1599 25.8317 55.1192 25.9437 55.0977C26.4105 55.0329 26.8806 54.995 27.3518 54.9843C28.2403 54.9263 29.1211 54.7816 29.9816 54.5525C30.2366 54.3901 30.4521 54.1727 30.6123 53.9163L31.2266 53.7369C30.56 49.1063 31.6263 44.3926 34.2211 40.4999L33.7507 40.0806C33.7336 39.7762 33.6314 39.4828 33.4559 39.2336C32.7801 38.6527 32.0492 38.1392 31.2735 37.7004C30.8547 37.4868 30.4485 37.2493 30.057 36.989C29.968 36.9226 29.8498 36.8229 29.7531 36.7443L29.7312 36.729C29.3975 36.4892 29.1722 36.1271 29.1046 35.7218C29.0369 35.3165 29.1325 34.9008 29.3704 34.5657C29.5109 34.3937 29.69 34.2572 29.8931 34.1673C30.0963 34.0775 30.3178 34.0367 30.5396 34.0484C30.913 34.0644 31.2715 34.1997 31.5624 34.4343C31.6622 34.5126 31.7989 34.6172 31.8875 34.6933C32.2291 35.0164 32.5518 35.3589 32.8541 35.719C33.4538 36.3778 34.1163 36.9766 34.8323 37.5067C35.1006 37.6478 35.4135 37.6781 35.704 37.5912C35.8787 37.7187 36.0551 37.8441 36.2331 37.9674C38.8116 35.2266 42.1504 33.3191 45.8209 32.4898C46.6946 32.2919 47.581 32.1557 48.4737 32.082L48.5085 31.4617C48.7364 31.2592 48.9016 30.9957 48.9848 30.7024C49.0168 29.8121 48.9621 28.9209 48.8214 28.0413C48.7281 27.5803 48.6612 27.1143 48.6211 26.6457C48.6173 26.539 48.6232 26.3916 48.6246 26.2699C48.6246 26.256 48.6211 26.2421 48.6211 26.2289C48.6003 26.0237 48.6227 25.8165 48.6869 25.6206C48.7511 25.4246 48.8557 25.2443 48.9939 25.0913C49.1321 24.9383 49.3008 24.816 49.4892 24.7322C49.6777 24.6484 49.8815 24.6051 50.0877 24.605C50.2939 24.6049 50.4978 24.6481 50.6863 24.7316C50.8748 24.8152 51.0436 24.9374 51.182 25.0903C51.3203 25.2432 51.4251 25.4234 51.4895 25.6192C51.5539 25.8151 51.5765 26.0223 51.5558 26.2275C51.5558 26.3561 51.5635 26.5265 51.559 26.6447C51.5188 27.1132 51.4516 27.5791 51.3577 28.0399C51.2161 28.9197 51.1605 29.8111 51.1915 30.7017C51.2495 30.9994 51.4215 31.2627 51.6709 31.4353C51.6761 31.5413 51.6935 31.8953 51.7064 32.0903C56.3451 32.5122 60.673 34.6033 63.8861 37.9754L64.4445 37.5766C64.7444 37.6281 65.0527 37.5946 65.3345 37.48C66.0504 36.9489 66.713 36.3495 67.3128 35.6901C67.6157 35.3298 67.9392 34.9873 68.2818 34.6645C68.3718 34.5873 68.5078 34.4837 68.6072 34.4051C68.7545 34.2599 68.9306 34.1473 69.1242 34.0746C69.3177 34.0019 69.5244 33.9708 69.7308 33.9831C69.9372 33.9955 70.1388 34.0511 70.3223 34.1464C70.5058 34.2417 70.6672 34.3745 70.7961 34.5362C70.925 34.6979 71.0184 34.8849 71.0703 35.085C71.1222 35.2852 71.1315 35.494 71.0974 35.698C71.0634 35.9019 70.9869 36.0965 70.8728 36.2689C70.7587 36.4414 70.6097 36.588 70.4353 36.6991C70.3369 36.7787 70.2069 36.8896 70.1123 36.9598C69.7199 37.2203 69.3128 37.4578 68.893 37.6712C68.1175 38.1102 67.3866 38.6237 66.7106 39.2044C66.5139 39.4348 66.415 39.7331 66.4353 40.0354C66.3536 40.1105 66.0668 40.3646 65.9148 40.5023C68.517 44.3812 69.6047 49.0803 68.9716 53.708L69.564 53.8805C69.7121 54.147 69.9311 54.3672 70.1968 54.5167C71.0577 54.7462 71.9389 54.8913 72.828 54.9499C73.2986 54.9607 73.7683 54.9983 74.2347 55.0626C74.3581 55.0852 74.5365 55.1345 74.6623 55.1634C74.8656 55.1901 75.0611 55.259 75.2362 55.3656C75.4114 55.4722 75.5623 55.6143 75.6794 55.7826C75.7965 55.9509 75.8771 56.1418 75.9162 56.3431C75.9552 56.5444 75.9518 56.7516 75.9062 56.9515C75.8605 57.1514 75.7736 57.3395 75.6511 57.5039C75.5285 57.6683 75.373 57.8053 75.1944 57.9061C75.0159 58.0069 74.8182 58.0693 74.6142 58.0893C74.4101 58.1093 74.2041 58.0865 74.0094 58.0223L73.9882 58.0195C73.9784 58.0171 73.9694 58.0119 73.9593 58.0091C73.8383 57.983 73.6864 57.9566 73.5804 57.9288C73.1323 57.7849 72.6929 57.6151 72.2644 57.4205C71.4376 57.0871 70.5802 56.835 69.7045 56.6678C69.4014 56.6582 69.1066 56.7677 68.8833 56.9727C68.6747 56.9331 68.4656 56.8964 68.2561 56.8628C66.8373 61.3271 63.827 65.1145 59.7978 67.5038Z" fill="#326CE5"/>
<path d="M88.4275 57.9455L81.8192 29.2415C81.6416 28.4987 81.3012 27.8047 80.8227 27.2094C80.3443 26.6142 79.7396 26.1326 79.0524 25.7995L52.304 13.0294C51.6107 12.6985 50.8522 12.5267 50.084 12.5267C49.3157 12.5267 48.5572 12.6985 47.8639 13.0294L21.1179 25.8071C20.4307 26.14 19.826 26.6212 19.3474 27.2162C18.8687 27.8111 18.5281 28.5048 18.3501 29.2474L11.7533 57.9531C11.6045 58.6149 11.5892 59.2997 11.7083 59.9674C11.8274 60.6351 12.0785 61.2724 12.4469 61.8419C12.5377 61.981 12.634 62.1159 12.7383 62.2459L31.2506 85.2637C31.7358 85.856 32.3456 86.334 33.0366 86.6638C33.7276 86.9935 34.4829 87.1668 35.2485 87.1714L64.9354 87.1644C65.7009 87.1601 66.456 86.9871 67.1471 86.6578C67.8381 86.3285 68.4481 85.851 68.9337 85.2592L87.4394 62.2393C87.9133 61.6425 88.248 60.9473 88.4189 60.2047C88.5899 59.462 88.5928 58.6905 88.4275 57.9465V57.9455ZM85.2299 59.2896C85.1854 59.4929 85.1275 59.693 85.0568 59.8886C84.8865 60.3649 84.6386 60.8097 84.3232 61.2049L67.8785 81.6614L67.3618 82.3053C67.0432 82.6966 66.6627 83.0331 66.2354 83.3014C66.0705 83.4069 65.8993 83.5024 65.7229 83.5872C65.604 83.6421 65.4829 83.692 65.3596 83.7367C65.2021 83.7966 65.0416 83.8483 64.8788 83.8914C64.6519 83.9526 64.4207 83.9967 64.1872 84.0232C64.0245 84.0416 63.8608 84.0511 63.697 84.0517L36.7508 84.058H36.4866C36.0837 84.0554 35.6829 84.0003 35.2944 83.8939C34.8207 83.7682 34.3687 83.5714 33.9541 83.3101C33.6258 83.1013 33.325 82.8523 33.0585 82.5689C32.9775 82.4833 32.8958 82.3996 32.8221 82.3081L15.8538 61.2116C15.7592 61.0924 15.6706 60.9689 15.5878 60.8409C15.396 60.5442 15.2393 60.2261 15.1209 59.8932C15.0509 59.6979 14.9938 59.4983 14.9502 59.2955C14.802 58.6304 14.8025 57.9408 14.9516 57.2759L20.999 30.9656C21.1621 30.285 21.4741 29.6491 21.9127 29.1038C22.3513 28.5585 22.9055 28.1173 23.5353 27.8122L48.0492 16.1007C48.6847 15.7975 49.3799 15.6401 50.084 15.6401C50.7881 15.6401 51.4833 15.7975 52.1187 16.1007L76.6364 27.807C77.2661 28.1124 77.8202 28.5537 78.2587 29.0992C78.6972 29.6447 79.0091 30.2807 79.172 30.9614L85.2292 57.2714C85.3784 57.936 85.3786 58.6255 85.2299 59.2903V59.2896Z" fill="white"/>
<path d="M74.662 55.1638C74.5368 55.1349 74.3581 55.0855 74.2354 55.0629C73.769 54.9985 73.2994 54.9606 72.8287 54.9496C71.9395 54.8915 71.058 54.7468 70.1968 54.5178C69.931 54.368 69.712 54.1476 69.564 53.8808L68.9716 53.7084C69.6049 49.0807 68.5174 44.3816 65.9155 40.5027C66.0671 40.365 66.3543 40.1108 66.4353 40.0361C66.4151 39.7338 66.5139 39.4356 66.7107 39.2051C67.3866 38.6244 68.1175 38.1109 68.893 37.6719C69.3128 37.4585 69.7199 37.221 70.1123 36.9605C70.2069 36.8903 70.3362 36.7791 70.4353 36.6998C70.6096 36.5887 70.7587 36.4422 70.8727 36.2697C70.9868 36.0973 71.0633 35.9028 71.0974 35.6989C71.1314 35.495 71.1222 35.2862 71.0704 35.0861C71.0185 34.886 70.9252 34.699 70.7964 34.5373C70.6676 34.3756 70.5062 34.2427 70.3228 34.1474C70.1394 34.0521 69.9379 33.9963 69.7316 33.9839C69.5252 33.9714 69.3185 34.0025 69.125 34.0751C68.9314 34.1476 68.7552 34.2601 68.6079 34.4051C68.5078 34.4841 68.3715 34.5877 68.2825 34.6648C67.9397 34.9877 67.6159 35.3301 67.3128 35.6905C66.713 36.3498 66.0505 36.9493 65.3346 37.4803C65.0527 37.5949 64.7444 37.6284 64.4445 37.577L63.8861 37.9758C60.673 34.6037 56.3451 32.5125 51.7064 32.0907C51.6928 31.8956 51.6761 31.5424 51.6709 31.4356C51.4218 31.2629 51.25 30.9996 51.1922 30.702C51.1612 29.8115 51.2168 28.92 51.3584 28.0402C51.4518 27.5795 51.5186 27.1138 51.5583 26.6454C51.5628 26.5272 51.5559 26.3554 51.5559 26.2278C51.5765 26.0227 51.5539 25.8155 51.4895 25.6196C51.4251 25.4237 51.3203 25.2435 51.182 25.0906C51.0437 24.9378 50.8748 24.8156 50.6863 24.732C50.4978 24.6484 50.2939 24.6053 50.0877 24.6054C49.8815 24.6055 49.6777 24.6488 49.4893 24.7326C49.3009 24.8163 49.1321 24.9387 48.9939 25.0917C48.8557 25.2447 48.7511 25.425 48.6869 25.6209C48.6227 25.8169 48.6003 26.0241 48.6211 26.2292C48.6211 26.2431 48.6243 26.2563 48.6246 26.2702C48.6232 26.3919 48.6173 26.5393 48.6211 26.6457C48.6612 27.1145 48.7281 27.5805 48.8214 28.0416C48.9621 28.9213 49.0168 29.8125 48.9848 30.7027C48.9015 30.9958 48.7363 31.259 48.5085 31.4614L48.4737 32.0823C47.581 32.156 46.6946 32.2923 45.821 32.4901C42.1509 33.3195 38.8124 35.2269 36.2342 37.9674C36.0557 37.8443 35.8788 37.7189 35.7036 37.5912C35.4133 37.6781 35.1006 37.6477 34.8323 37.5067C34.1163 36.9767 33.4538 36.3781 32.8541 35.7193C32.5522 35.3592 32.2298 35.0168 31.8886 34.6937C31.7992 34.6172 31.6626 34.5129 31.5625 34.4329C31.2715 34.1983 30.913 34.0631 30.5396 34.047C30.3177 34.0354 30.0962 34.0763 29.8931 34.1663C29.6899 34.2563 29.5108 34.3929 29.3704 34.5651C29.1325 34.9002 29.0369 35.3158 29.1046 35.7211C29.1722 36.1265 29.3975 36.4886 29.7313 36.7283L29.7539 36.7443C29.8498 36.8229 29.968 36.9233 30.057 36.9884C30.4485 37.2488 30.8547 37.4866 31.2735 37.7004C32.0491 38.1394 32.7799 38.6532 33.4555 39.2343C33.6311 39.4833 33.7333 39.7765 33.7507 40.0806L34.2204 40.5006C31.6259 44.3934 30.5598 49.1071 31.2266 53.7376L30.6123 53.9163C30.452 54.1723 30.2365 54.3894 29.9816 54.5515C29.121 54.7812 28.2402 54.9264 27.3514 54.9851C26.8804 54.9958 26.4104 55.0336 25.9437 55.0984C25.831 55.1193 25.6746 55.1589 25.5519 55.1895L25.539 55.1923L25.5181 55.1985C25.3149 55.2252 25.1195 55.2941 24.9444 55.4007C24.7693 55.5073 24.6183 55.6492 24.5012 55.8175C24.3841 55.9857 24.3035 56.1766 24.2644 56.3778C24.2253 56.579 24.2286 56.7862 24.2742 56.9861C24.3197 57.1859 24.4065 57.3741 24.529 57.5385C24.6514 57.7029 24.8069 57.8399 24.9853 57.9408C25.1638 58.0417 25.3613 58.1042 25.5653 58.1243C25.7693 58.1445 25.9753 58.1218 26.17 58.0578L26.1919 58.0543C26.2017 58.0522 26.21 58.0474 26.2197 58.0456C26.3407 58.0178 26.493 57.989 26.5994 57.9601C27.0474 57.8171 27.4869 57.6487 27.9157 57.4556C28.742 57.1224 29.5988 56.8703 30.4739 56.7029C30.7774 56.7215 31.0696 56.8247 31.3173 57.0009L31.9571 56.8914C33.3932 61.3282 36.4032 65.0861 40.4195 67.4562L40.1521 68.0959C40.2764 68.3536 40.322 68.6423 40.2832 68.9258C39.9174 69.7617 39.4727 70.5608 38.9551 71.3122C38.6705 71.6875 38.4078 72.079 38.1683 72.4846C38.1099 72.5951 38.0358 72.7645 37.9798 72.8802C37.8739 73.0565 37.8061 73.253 37.7807 73.4571C37.7553 73.6612 37.7729 73.8683 37.8324 74.0652C37.8919 74.262 37.9919 74.4443 38.126 74.6001C38.2602 74.756 38.4254 74.8821 38.6112 74.9702C38.797 75.0584 38.9992 75.1067 39.2048 75.112C39.4104 75.1173 39.6148 75.0795 39.8049 75.0011C39.995 74.9226 40.1666 74.8053 40.3086 74.6565C40.4506 74.5078 40.5599 74.331 40.6295 74.1374L40.6319 74.1346V74.1312C40.6875 74.0164 40.7665 73.8659 40.8134 73.7585C40.9805 73.3188 41.1219 72.8697 41.2369 72.4136C41.4902 71.4861 41.8727 70.5987 42.3731 69.7776C42.548 69.6134 42.7684 69.5058 43.0055 69.4688L43.3382 68.8674C47.6941 70.5424 52.5144 70.5546 56.8788 68.9018C56.9719 69.068 57.1458 69.3857 57.1917 69.4661C57.4914 69.514 57.7604 69.6775 57.9409 69.9215C58.3563 70.7091 58.6938 71.5354 58.9485 72.3886C59.0645 72.8447 59.2067 73.2937 59.3744 73.7334C59.422 73.8419 59.4995 73.9942 59.5559 74.1096C59.6252 74.3033 59.7344 74.4802 59.8762 74.6292C60.0181 74.7781 60.1896 74.8957 60.3796 74.9745C60.5697 75.0532 60.7741 75.0912 60.9797 75.0862C61.1854 75.0811 61.3877 75.0331 61.5737 74.9452C61.7596 74.8573 61.9251 74.7314 62.0596 74.5757C62.194 74.42 62.2943 74.2379 62.3541 74.041C62.4139 73.8442 62.4319 73.6371 62.4068 73.4329C62.3817 73.2287 62.3142 73.0321 62.2086 72.8555C62.1526 72.7398 62.0755 72.5705 62.0174 72.4606C61.7779 72.0559 61.5152 71.6654 61.2306 71.291C60.7221 70.5588 60.2864 69.7786 59.9296 68.9616C59.8521 68.6694 59.8926 68.3585 60.0423 68.0959C59.9483 67.9039 59.8667 67.7061 59.7978 67.5038C63.827 65.1145 66.8373 61.3275 68.2561 56.8632C68.4459 56.8934 68.7765 56.9512 68.884 56.9731C69.1072 56.7682 69.4017 56.6588 69.7045 56.6681C70.5799 56.8354 71.4369 57.0875 72.2634 57.4209C72.6922 57.6155 73.1319 57.7853 73.5804 57.9292C73.6864 57.957 73.8376 57.9834 73.9593 58.0102C73.9694 58.013 73.9785 58.0171 73.9882 58.0199L74.009 58.023C74.2037 58.0869 74.4096 58.1095 74.6135 58.0893C74.8174 58.0691 75.0148 58.0066 75.1931 57.9057C75.3715 57.8049 75.5268 57.668 75.6493 57.5037C75.7717 57.3394 75.8585 57.1513 75.9041 56.9516C75.9497 56.7518 75.9531 56.5448 75.9142 56.3436C75.8752 56.1425 75.7947 55.9517 75.6778 55.7834C75.5609 55.6152 75.4102 55.4731 75.2352 55.3664C75.0603 55.2597 74.8651 55.1907 74.662 55.1638ZM60.7202 40.2183L54.4492 44.664L54.4273 44.6535C54.2383 44.7914 54.0155 44.8754 53.7826 44.8968C53.5497 44.9181 53.3153 44.8759 53.1045 44.7747C52.8936 44.6735 52.7141 44.517 52.585 44.322C52.456 44.1269 52.3822 43.9005 52.3715 43.6668L52.3645 43.6634L51.9289 35.9787C55.2446 36.3904 58.3333 37.88 60.7199 40.2183H60.7202ZM48.9069 48.6417H51.2669L52.7341 50.4761L52.2081 52.7638L50.0887 53.7838L47.963 52.7617L47.4359 50.4729L48.9069 48.6417ZM46.6867 36.2478C47.2036 36.1315 47.7261 36.0416 48.2522 35.9787L47.8159 43.6752L47.7839 43.6905C47.7741 43.9242 47.701 44.1508 47.5725 44.3463C47.444 44.5418 47.2649 44.6987 47.0543 44.8005C46.8437 44.9022 46.6094 44.945 46.3764 44.9241C46.1434 44.9032 45.9205 44.8196 45.7313 44.6821L45.7191 44.689L39.4074 40.2137C41.4167 38.2391 43.938 36.8655 46.6867 36.2478ZM37.1187 43.09L42.881 48.244L42.8748 48.2753C43.0514 48.429 43.183 48.6277 43.2555 48.8503C43.328 49.0729 43.3388 49.311 43.2866 49.5392C43.2344 49.7674 43.1213 49.9772 42.9592 50.1462C42.7972 50.3152 42.5923 50.437 42.3665 50.4987L42.3605 50.5237L34.9742 52.6549C34.6062 49.317 35.3607 45.9513 37.1187 43.09ZM44.8339 56.7815L41.8992 63.873C39.0824 62.0699 36.9393 59.3876 35.8024 56.2422L43.3758 54.9558L43.3886 54.9729C43.4723 54.9569 43.5573 54.9493 43.6424 54.9503C43.8548 54.9534 44.0631 55.0088 44.249 55.1116C44.4349 55.2144 44.5926 55.3614 44.7082 55.5395C44.8238 55.7177 44.8938 55.9217 44.9119 56.1333C44.93 56.3449 44.8957 56.5578 44.812 56.753L44.8339 56.7815ZM53.4966 65.901C50.7507 66.5308 47.8836 66.3835 45.2167 65.4758L48.9413 58.7406H48.9476C49.0583 58.5349 49.2227 58.3629 49.4233 58.2429C49.6238 58.123 49.8531 58.0595 50.0868 58.0593C50.3205 58.0591 50.5499 58.1221 50.7507 58.2417C50.9515 58.3613 51.1162 58.533 51.2273 58.7386H51.2551L54.9891 65.4848C54.5045 65.6466 54.007 65.7856 53.4966 65.9017V65.901ZM58.3087 63.9015L55.3438 56.7377L55.3528 56.7248C55.2213 56.4184 55.2131 56.073 55.3299 55.7607C55.4466 55.4483 55.6794 55.193 55.9797 55.048C56.1345 54.9722 56.303 54.9285 56.4751 54.9193C56.5747 54.9147 56.6745 54.9221 56.7724 54.9412L56.7852 54.9253L64.4261 56.2165C63.2982 59.3872 61.1456 62.0911 58.3087 63.9015ZM65.2285 52.6299L57.805 50.4917L57.798 50.4604C57.5726 50.3982 57.3682 50.276 57.2066 50.107C57.0451 49.9379 56.9322 49.7283 56.8802 49.5003C56.8281 49.2723 56.8388 49.0345 56.911 48.8121C56.9832 48.5897 57.1143 48.3909 57.2904 48.237L57.2876 48.2221L63.018 43.0935C64.7728 45.9473 65.5487 49.2955 65.2282 52.6302L65.2285 52.6299Z" fill="white"/>
</svg>
