<svg width="100" height="100" viewBox="0 0 100 100" fill="none" xmlns="http://www.w3.org/2000/svg">
<rect x="1.5" y="1.5" width="97" height="97" rx="18.5" fill="white" stroke="black" stroke-width="3"/>
<path d="M62.2667 14H37.7333V23.3333H62.2667V14Z" fill="black"/>
<path d="M86.2667 24.6667H13.7333C10 24.6667 10 27.8667 10 27.8667V31.6C23.3333 51.3333 44.6667 51.3333 44.6667 51.3333V49.2C44.6667 49.2 44.6667 46.5333 47.3333 45.4667C49.4667 44.9333 50.5333 44.9333 52.6667 45.4667C55.3333 46.5333 55.3333 49.2 55.3333 49.2V51.3333C55.3333 51.3333 76.6667 51.3333 90 31.6V27.8667C90 27.8667 90 24.6667 86.2667 24.6667Z" fill="black"/>
<path d="M10 69.4667V35.8667C23.3333 53.4667 44.6667 54 44.6667 54V58.2667C44.6667 58.2667 45.2 60.4 47.3333 60.9333C49.7333 61.4667 50.2667 61.4667 52.6667 60.9333C54.8 60.4 55.3333 58.2667 55.3333 58.2667V54C55.3333 54 76.6667 53.4667 90 35.8667V69.4667H10Z" fill="black"/>
<path d="M90 71.6H10V76.9333C10 76.9333 10 79.6 12.6667 80.1333H87.3333C90 79.6 90 76.9333 90 76.9333V71.6Z" fill="black"/>
</svg>
