<svg width="100" height="100" viewBox="0 0 100 100" fill="none" xmlns="http://www.w3.org/2000/svg">
<rect x="1.5" y="1.5" width="97" height="97" rx="18.5" fill="white" stroke="black" stroke-width="3"/>
<g clip-path="url(#clip0_17_15)">
<path d="M50 90C72.0914 90 90 72.0914 90 50C90 27.9086 72.0914 10 50 10C27.9086 10 10 27.9086 10 50C10 72.0914 27.9086 90 50 90Z" fill="#1B9DF0"/>
<path d="M42.68 71.1C60.42 71.1 70.12 56.4 70.12 43.66C70.12 43.24 70.12 42.82 70.1 42.42C71.98 41.06 73.62 39.36 74.92 37.42C73.2 38.18 71.34 38.7 69.38 38.94C71.38 37.74 72.9 35.86 73.62 33.6C71.76 34.7 69.7 35.5 67.5 35.94C65.74 34.06 63.24 32.9 60.46 32.9C55.14 32.9 50.82 37.22 50.82 42.54C50.82 43.3 50.9 44.04 51.08 44.74C43.06 44.34 35.96 40.5 31.2 34.66C30.38 36.08 29.9 37.74 29.9 39.5C29.9 42.84 31.6 45.8 34.2 47.52C32.62 47.48 31.14 47.04 29.84 46.32C29.84 46.36 29.84 46.4 29.84 46.44C29.84 51.12 33.16 55 37.58 55.9C36.78 56.12 35.92 56.24 35.04 56.24C34.42 56.24 33.82 56.18 33.22 56.06C34.44 59.9 38 62.68 42.22 62.76C38.92 65.34 34.76 66.88 30.24 66.88C29.46 66.88 28.7 66.84 27.94 66.74C32.16 69.5 37.24 71.1 42.68 71.1Z" fill="white"/>
</g>
<defs>
<clipPath id="clip0_17_15">
<rect width="80" height="80" fill="white" transform="translate(10 10)"/>
</clipPath>
</defs>
</svg>
