<svg width="100" height="100" viewBox="0 0 100 100" fill="none" xmlns="http://www.w3.org/2000/svg">
<rect x="1.5" y="1.5" width="97" height="97" rx="18.5" fill="white" stroke="black" stroke-width="3"/>
<g style="mix-blend-mode:multiply" clip-path="url(#clip0_4_75)">
<path d="M78.4036 28.3259L54.5964 14.2634C51.7531 12.5789 48.2469 12.5789 45.4036 14.2634L21.5964 28.3259C18.7531 29.9958 17 33.1013 17 36.4558V64.5662C17 67.9207 18.7531 71.0261 21.5964 72.696L45.4036 86.7439C46.8179 87.5789 48.4089 88.0037 50 88.0037C51.5911 88.0037 53.1674 87.5789 54.5964 86.7439L78.4036 72.696C81.2469 71.0115 83 67.9207 83 64.5662V36.4558C83 33.1013 81.2469 29.9958 78.4036 28.3259Z" fill="white"/>
<path d="M78.4036 28.3259L54.5964 14.2634C53.1821 13.4285 51.5911 13.0037 50 13.0037C48.4089 13.0037 46.8326 13.4285 45.4036 14.2634L21.5964 28.3259C18.7531 29.9958 17 33.1013 17 36.4558V64.5662C17 67.9207 18.7531 71.0261 21.5964 72.696L45.4036 86.7439C46.8179 87.5789 48.4089 88.0037 50 88.0037C51.5911 88.0037 53.1674 87.5789 54.5964 86.7439L78.4036 72.696C81.2469 71.0115 83 67.9207 83 64.5662V36.4558C83 33.1013 81.2469 29.9958 78.4036 28.3259ZM46.2433 85.3084L22.4362 71.2605C20.1085 69.8835 18.6647 67.3201 18.6647 64.5662V36.4558C18.6647 33.7019 20.1085 31.1384 22.4362 29.7615L46.2433 15.7136C47.3924 15.0398 48.6888 14.6882 50 14.6882C51.3112 14.6882 52.6223 15.0398 53.7567 15.7136L77.5638 29.7615C79.5232 30.9187 80.8491 32.9255 81.2174 35.1814C80.4219 33.5115 78.654 33.0427 76.5768 34.2585L54.0513 48.1013C51.2375 49.7273 49.175 51.573 49.175 54.9275V82.5251C49.175 84.5466 49.9853 85.8503 51.2522 86.2312C50.8397 86.3044 50.4272 86.3484 50 86.3484C48.6888 86.3337 47.3777 85.9822 46.2433 85.3084Z" fill="#283037"/>
<path d="M72.1719 67.2761L66.2348 70.8064C66.0728 70.8943 65.9549 70.9968 65.9549 71.1873V72.7253C65.9549 72.9158 66.0875 72.989 66.2348 72.9011L72.2603 69.2683C72.4223 69.1804 72.4371 69.0046 72.4371 68.8142V67.4519C72.4518 67.2615 72.3192 67.1882 72.1719 67.2761Z" fill="#4DA825"/>
<path d="M59.5464 54.2976C59.7379 54.1951 59.9 54.3269 59.9 54.5759L59.9147 56.6121C60.7692 56.2751 61.5205 56.1873 62.1982 56.3337C62.3455 56.3777 62.4045 56.5681 62.3455 56.8025L61.8888 58.6042C61.8594 58.7361 61.771 58.8826 61.6826 58.9705C61.6384 59.0144 61.6089 59.0437 61.5647 59.0583C61.5058 59.0876 61.4469 59.1023 61.3879 59.0876C61.0786 59.0144 60.342 58.8533 59.1929 59.4392C57.9848 60.0544 57.5576 61.0945 57.5723 61.8708C57.5871 62.7937 58.0585 63.0867 59.7085 63.1013C61.9036 63.1306 62.8612 64.0974 62.8759 66.2947C62.9054 68.4626 61.7415 70.7771 59.9589 72.2126L60.0031 74.2341C60.0031 74.4831 59.8411 74.7615 59.6496 74.8494L58.4415 75.5378C58.25 75.6404 58.088 75.5232 58.088 75.2742L58.0732 73.282C57.042 73.7068 55.996 73.8093 55.333 73.5456C55.2004 73.5017 55.1563 73.3113 55.2004 73.1062L55.6424 71.2751C55.6719 71.1287 55.7603 70.9822 55.8634 70.8943C55.9076 70.865 55.9371 70.8357 55.9813 70.8064C56.0549 70.7771 56.1138 70.7624 56.1728 70.7917C56.8946 71.0261 57.808 70.9236 58.692 70.4695C59.8116 69.8982 60.5629 68.7703 60.5482 67.6277C60.5335 66.6023 59.9737 66.1775 58.6183 66.1628C56.8946 66.1628 55.2741 65.8259 55.2446 63.2917C55.2299 61.2117 56.3201 59.0437 58.0438 57.6667L58.029 55.6306C58.029 55.3816 58.1763 55.1033 58.3826 55.0007L59.5464 54.2976Z" fill="white"/>
</g>
<defs>
<clipPath id="clip0_4_75">
<rect width="75" height="75" fill="white" transform="translate(12 13)"/>
</clipPath>
</defs>
</svg>
