<svg width="100" height="100" viewBox="0 0 100 100" fill="none" xmlns="http://www.w3.org/2000/svg">
<rect x="1.5" y="1.5" width="97" height="97" rx="18.5" fill="white" stroke="black" stroke-width="3"/>
<path d="M49.5713 14.0006C46.6024 14.0142 43.7672 14.2647 41.2725 14.7013C33.9235 15.9854 32.5892 18.6733 32.5892 23.6301V30.1765H49.9559V32.3587H32.5892H26.0717C21.0244 32.3587 16.6049 35.3592 15.2226 41.0673C13.628 47.61 13.5573 51.6928 15.2226 58.5245C16.4571 63.6098 19.4052 67.2331 24.4524 67.2331H30.4234V59.3854C30.4234 53.7158 35.383 48.7148 41.2725 48.7148H58.6189C63.4476 48.7148 67.3023 44.7825 67.3023 39.9862V23.6301C67.3023 18.975 63.3318 15.4782 58.6189 14.7013C55.6356 14.2101 52.5401 13.9869 49.5713 14.0006ZM40.1795 19.2658C41.9734 19.2658 43.4383 20.7384 43.4383 22.549C43.4383 24.3533 41.9734 25.8122 40.1795 25.8122C38.3792 25.8122 36.9208 24.3533 36.9208 22.549C36.9208 20.7384 38.3792 19.2658 40.1795 19.2658Z" fill="url(#paint0_linear_4_69)"/>
<path d="M69.468 32.3587V39.9862C69.468 45.8997 64.3992 50.877 58.6189 50.877H41.2725C36.5211 50.877 32.5892 54.8992 32.5892 59.6056V75.9617C32.5892 80.6168 36.6818 83.3548 41.2725 84.6903C46.7698 86.2891 52.0415 86.578 58.6189 84.6903C62.9911 83.4383 67.3023 80.9185 67.3023 75.9617V69.4153H49.9559V67.2331H67.3023H75.9856C81.0328 67.2331 82.9136 63.751 84.6689 58.5245C86.4821 53.1439 86.4049 47.9696 84.6689 41.0673C83.4216 36.0976 81.0392 32.3587 75.9856 32.3587H69.468ZM59.712 73.7796C61.5122 73.7796 62.9707 75.2386 62.9707 77.0428C62.9707 78.8534 61.5122 80.326 59.712 80.326C57.9181 80.326 56.4532 78.8534 56.4532 77.0428C56.4532 75.2386 57.9181 73.7796 59.712 73.7796Z" fill="url(#paint1_linear_4_69)"/>
<defs>
<linearGradient id="paint0_linear_4_69" x1="14" y1="14" x2="53.6749" y2="48.1819" gradientUnits="userSpaceOnUse">
<stop stop-color="#5A9FD4"/>
<stop offset="1" stop-color="#306998"/>
</linearGradient>
<linearGradient id="paint1_linear_4_69" x1="59.2946" y1="76.4924" x2="45.1361" y2="56.433" gradientUnits="userSpaceOnUse">
<stop stop-color="#FFD43B"/>
<stop offset="1" stop-color="#FFE873"/>
</linearGradient>
</defs>
</svg>
