<svg width="190" height="180" viewBox="0 0 190 180" fill="none" xmlns="http://www.w3.org/2000/svg">
<path d="M3.05176e-05 90V150H4.92513C13.9014 104.957 25 90 25 90H3.05176e-05Z" fill="#00A3EE"/>
<path d="M3.05176e-05 30.0001H84.5C84.5 30.0001 69.5 38.0001 56.6422 50.0001H3.05176e-05V42H52.5C55 40 58 38 58 38H3.05176e-05V30.0001Z" fill="#00A3EE"/>
<path d="M3.05176e-05 60.0001H46C46 60.0001 36.5 68.5001 30 80.0001H3.05176e-05L1.52588e-05 72H26C27.5 69.5 29 68 29 68H0L3.05176e-05 60.0001Z" fill="#00A3EE"/>
<path d="M190 0H1.52588e-05L3.05176e-05 8H112C112 8 107.5 9 100 12H3.05176e-05L1.52588e-05 20H104C145 1.50008 190 0 190 0Z" fill="#00A3EE"/>
</svg>
