<svg width="220" height="100" viewBox="0 0 220 100" fill="none" xmlns="http://www.w3.org/2000/svg">
<rect x="1.5" y="1.5" width="217" height="97" rx="18.5" fill="white" stroke="black" stroke-width="3"/>
<g clip-path="url(#clip0_305_21)">
<path d="M32.5213 31.7397C30.7497 29.6221 29.2241 27.4715 28.9125 27.0248C28.8796 26.9917 28.8304 26.9917 28.7976 27.0248C28.4859 27.4715 26.9604 29.6221 25.1888 31.7397C9.98254 51.2776 27.5838 64.4629 27.5838 64.4629L27.7314 64.5621C27.8626 66.5969 28.1907 69.5252 28.1907 69.5252H28.8468H29.503C29.503 69.5252 29.8311 66.6134 29.9623 64.5621L30.1099 64.4463C30.1263 64.4629 47.7276 51.2776 32.5213 31.7397ZM28.8468 64.1816C28.8468 64.1816 28.0595 63.5033 27.8462 63.1558V63.1229L28.7976 41.8478C28.7976 41.7817 28.8961 41.7817 28.8961 41.8478L29.8475 63.1229V63.1558C29.6342 63.5033 28.8468 64.1816 28.8468 64.1816Z" fill="#00684A"/>
<path d="M61.7865 59.6944L54.4518 41.7761L54.4354 41.7266H48.7288V42.9311H49.6498C49.9293 42.9311 50.1924 43.0466 50.3899 43.2446C50.5871 43.4426 50.6858 43.7066 50.6858 43.9871L50.5214 62.0207C50.5214 62.5817 50.061 63.0437 49.5018 63.0602L48.5644 63.0767V64.2646H54.123V63.0767L53.5473 63.0602C52.9882 63.0437 52.5277 62.5817 52.5277 62.0207V45.0265L60.5203 64.2646C60.6353 64.5451 60.8984 64.7266 61.1945 64.7266C61.4905 64.7266 61.7536 64.5451 61.8687 64.2646L69.6803 45.4554L69.7955 62.0207C69.7955 62.5982 69.3349 63.0602 68.7594 63.0767H68.1673V64.2646H74.6797V63.0767H73.7916C73.2325 63.0767 72.7719 62.5982 72.7555 62.0373L72.7062 44.0035C72.7062 43.426 73.1666 42.9641 73.7259 42.9476L74.6797 42.9311V41.7266H69.1211L61.7865 59.6944Z" fill="#00684A"/>
<path d="M112.928 62.7635C112.746 62.5822 112.647 62.3349 112.647 62.0384V53.2049C112.647 51.524 112.153 50.2055 111.163 49.2662C110.191 48.3268 108.839 47.8489 107.157 47.8489C104.799 47.8489 102.936 48.8048 101.633 50.6835C101.617 50.7165 101.567 50.733 101.518 50.733C101.468 50.733 101.435 50.6999 101.435 50.6506L100.825 48.2939H99.803L97.1815 49.7937V50.6175H97.8575C98.1707 50.6175 98.4345 50.6999 98.616 50.8647C98.7973 51.0295 98.8962 51.2767 98.8962 51.6229V62.0219C98.8962 62.3186 98.7973 62.5658 98.616 62.747C98.4345 62.9283 98.1873 63.0271 97.8905 63.0271H97.2309V64.2302H103.266V63.0271H102.606C102.309 63.0271 102.062 62.9283 101.881 62.747C101.699 62.5658 101.6 62.3186 101.6 62.0219V55.1331C101.6 54.2596 101.798 53.3863 102.161 52.5293C102.54 51.6888 103.101 50.9802 103.843 50.4363C104.585 49.8924 105.475 49.6289 106.497 49.6289C107.651 49.6289 108.525 49.9914 109.069 50.7165C109.613 51.4416 109.894 52.3809 109.894 53.5016V62.0053C109.894 62.302 109.795 62.5492 109.613 62.7306C109.432 62.9118 109.185 63.0107 108.888 63.0107H108.229V64.2137H114.263V63.0107H113.604C113.356 63.0436 113.125 62.9447 112.928 62.7635Z" fill="#00684A"/>
<path d="M168.062 43.0854C166.393 42.1906 164.529 41.7266 162.518 41.7266H154.668V42.9363H155.437C155.731 42.9363 155.993 43.0523 156.254 43.3174C156.5 43.566 156.63 43.8478 156.63 44.1459V61.9764C156.63 62.2746 156.5 62.5564 156.254 62.8049C156.009 63.0534 155.731 63.186 155.437 63.186H154.668V64.3957H162.518C164.529 64.3957 166.393 63.9317 168.062 63.0369C169.729 62.142 171.087 60.8163 172.068 59.1262C173.049 57.436 173.556 55.3977 173.556 53.0777C173.556 50.7578 173.049 48.7362 172.068 47.0294C171.071 45.306 169.729 43.9803 168.062 43.0854ZM170.4 53.0446C170.4 55.1657 170.024 56.9553 169.288 58.397C168.552 59.8387 167.571 60.9157 166.361 61.6117C165.151 62.3078 163.81 62.6558 162.37 62.6558H160.784C160.49 62.6558 160.228 62.5398 159.966 62.2746C159.721 62.026 159.59 61.7444 159.59 61.4461V44.6266C159.59 44.3283 159.705 44.0632 159.966 43.7979C160.212 43.5494 160.49 43.4169 160.784 43.4169H162.37C163.81 43.4169 165.151 43.7649 166.361 44.4608C167.571 45.1568 168.552 46.234 169.288 47.6757C170.024 49.1172 170.4 50.9235 170.4 53.0446Z" fill="#00684A"/>
<path d="M192.111 54.2543C191.385 53.4091 189.984 52.6966 188.337 52.3154C190.612 51.172 191.781 49.5647 191.781 47.4933C191.781 46.3665 191.485 45.3557 190.891 44.4939C190.298 43.6323 189.457 42.9363 188.386 42.4557C187.314 41.9752 186.06 41.7266 184.643 41.7266H175.757V42.9363H176.466C176.763 42.9363 177.027 43.0523 177.291 43.3174C177.538 43.566 177.67 43.8478 177.67 44.1459V61.9764C177.67 62.2746 177.538 62.5564 177.291 62.8049C177.043 63.0534 176.763 63.186 176.466 63.186H175.691V64.3957H185.336C186.803 64.3957 188.171 64.1472 189.408 63.6499C190.645 63.1529 191.633 62.4238 192.343 61.4626C193.067 60.5016 193.43 59.3249 193.43 57.9661C193.414 56.5078 192.985 55.265 192.111 54.2543ZM181.049 62.2911C180.802 62.0426 180.67 61.7609 180.67 61.4626V53.4589H185.254C186.868 53.4589 188.105 53.8731 188.963 54.7016C189.82 55.5303 190.249 56.6073 190.249 57.933C190.249 58.7284 190.05 59.5073 189.689 60.2198C189.309 60.949 188.747 61.529 187.99 61.9764C187.248 62.4238 186.325 62.6558 185.254 62.6558H181.874C181.577 62.6723 181.313 62.5398 181.049 62.2911ZM180.687 51.752V44.6432C180.687 44.3448 180.802 44.0797 181.066 43.8145C181.313 43.566 181.593 43.4334 181.89 43.4334H184.066C185.632 43.4334 186.786 43.8312 187.512 44.5933C188.237 45.3722 188.6 46.3665 188.6 47.5928C188.6 48.8522 188.253 49.863 187.578 50.6253C186.901 51.3709 185.88 51.752 184.528 51.752H180.687Z" fill="#00684A"/>
<path d="M89.9545 48.9058C88.6947 48.2123 87.2877 47.8489 85.7663 47.8489C84.2449 47.8489 82.8215 48.1957 81.5782 48.9058C80.3184 49.5994 79.3205 50.6068 78.5843 51.8784C77.8482 53.15 77.4719 54.6364 77.4719 56.2878C77.4719 57.9391 77.8482 59.4255 78.5843 60.6972C79.3205 61.9688 80.3184 62.9761 81.5782 63.6698C82.838 64.3633 84.2449 64.7266 85.7663 64.7266C87.2877 64.7266 88.7111 64.3798 89.9545 63.6698C91.2142 62.9761 92.2122 61.9688 92.9483 60.6972C93.6845 59.4255 94.0608 57.9391 94.0608 56.2878C94.0608 54.6364 93.6845 53.15 92.9483 51.8784C92.2122 50.6068 91.2142 49.616 89.9545 48.9058ZM91.1651 56.2878C91.1651 58.3191 90.6743 59.9704 89.6926 61.1595C88.7275 62.3485 87.4024 62.9596 85.7663 62.9596C84.1304 62.9596 82.8051 62.3485 81.84 61.1595C80.8583 59.9704 80.3675 58.3191 80.3675 56.2878C80.3675 54.2565 80.8583 52.6051 81.84 51.4161C82.8051 50.227 84.1304 49.616 85.7663 49.616C87.4024 49.616 88.7275 50.227 89.6926 51.4161C90.6743 52.6215 91.1651 54.2565 91.1651 56.2878Z" fill="#00684A"/>
<path d="M147.934 48.9058C146.674 48.2123 145.267 47.8489 143.745 47.8489C142.224 47.8489 140.801 48.1957 139.557 48.9058C138.298 49.5994 137.3 50.6068 136.563 51.8784C135.827 53.15 135.451 54.6364 135.451 56.2878C135.451 57.9391 135.827 59.4255 136.563 60.6972C137.3 61.9688 138.298 62.9761 139.557 63.6698C140.817 64.3633 142.224 64.7266 143.745 64.7266C145.267 64.7266 146.69 64.3798 147.934 63.6698C149.193 62.9761 150.191 61.9688 150.927 60.6972C151.664 59.4255 152.04 57.9391 152.04 56.2878C152.04 54.6364 151.664 53.15 150.927 51.8784C150.191 50.6068 149.177 49.616 147.934 48.9058ZM149.144 56.2878C149.144 58.3191 148.653 59.9704 147.672 61.1595C146.706 62.3485 145.381 62.9596 143.745 62.9596C142.109 62.9596 140.784 62.3485 139.819 61.1595C138.837 59.9704 138.347 58.3191 138.347 56.2878C138.347 54.2399 138.837 52.6051 139.819 51.4161C140.784 50.227 142.109 49.616 143.745 49.616C145.381 49.616 146.706 50.227 147.672 51.4161C148.637 52.6215 149.144 54.2565 149.144 56.2878Z" fill="#00684A"/>
<path d="M124.552 47.8489C123.233 47.8489 122.031 48.1309 120.943 48.695C119.856 49.259 118.999 50.0223 118.389 51.0011C117.78 51.9633 117.467 53.0418 117.467 54.1865C117.467 55.215 117.697 56.1607 118.175 57.0069C118.637 57.8198 119.263 58.4999 120.054 59.064L117.697 62.2827C117.401 62.6808 117.368 63.2116 117.582 63.643C117.813 64.0909 118.241 64.3565 118.735 64.3565H119.411C118.752 64.8044 118.225 65.3352 117.862 65.9656C117.434 66.6791 117.22 67.4256 117.22 68.1887C117.22 69.6155 117.846 70.7935 119.081 71.6728C120.301 72.5521 122.014 73 124.172 73C125.672 73 127.105 72.7511 128.407 72.27C129.725 71.7889 130.796 71.0754 131.587 70.1465C132.394 69.2174 132.806 68.0893 132.806 66.7951C132.806 65.4348 132.312 64.4725 131.158 63.5435C130.17 62.7637 128.621 62.349 126.693 62.349H120.103C120.087 62.349 120.07 62.3323 120.07 62.3323C120.07 62.3323 120.054 62.2992 120.07 62.2827L121.784 59.96C122.245 60.1756 122.673 60.3083 123.052 60.3912C123.448 60.4743 123.892 60.5074 124.387 60.5074C125.771 60.5074 127.023 60.2254 128.11 59.6613C129.198 59.0972 130.071 58.3341 130.697 57.3552C131.323 56.393 131.636 55.3147 131.636 54.17C131.636 52.9422 131.043 50.7024 129.428 49.5577C129.428 49.5412 129.445 49.5412 129.445 49.5412L132.987 49.9393V48.2968H127.319C126.43 47.9982 125.507 47.8489 124.552 47.8489ZM126.529 58.218C125.903 58.5497 125.227 58.7322 124.552 58.7322C123.448 58.7322 122.476 58.3341 121.652 57.5543C120.828 56.7746 120.416 55.6299 120.416 54.17C120.416 52.7099 120.828 51.5652 121.652 50.7855C122.476 50.0056 123.448 49.6075 124.552 49.6075C125.244 49.6075 125.903 49.7735 126.529 50.1218C127.155 50.4535 127.666 50.968 128.077 51.6481C128.473 52.3283 128.687 53.1745 128.687 54.17C128.687 55.182 128.489 56.028 128.077 56.6917C127.682 57.3717 127.155 57.8862 126.529 58.218ZM122.064 64.3398H126.529C127.764 64.3398 128.555 64.5886 129.082 65.1196C129.61 65.6504 129.873 66.3638 129.873 67.1934C129.873 68.4045 129.396 69.3999 128.44 70.1465C127.484 70.8931 126.199 71.2747 124.617 71.2747C123.233 71.2747 122.08 70.9595 121.24 70.3621C120.399 69.7649 119.971 68.8524 119.971 67.6911C119.971 66.9611 120.169 66.2809 120.564 65.6837C120.96 65.0863 121.437 64.655 122.064 64.3398Z" fill="#00684A"/>
<path d="M196.773 64.1188C196.447 63.9396 196.203 63.679 196.007 63.3696C195.828 63.044 195.73 62.702 195.73 62.3273C195.73 61.9527 195.828 61.5945 196.007 61.2851C196.186 60.9592 196.447 60.715 196.773 60.5358C197.099 60.3568 197.457 60.259 197.865 60.259C198.272 60.259 198.63 60.3568 198.957 60.5358C199.282 60.715 199.527 60.9756 199.722 61.2851C199.901 61.6107 200 61.9527 200 62.3273C200 62.702 199.901 63.0602 199.722 63.3696C199.543 63.6954 199.282 63.9396 198.957 64.1188C198.63 64.2979 198.272 64.3957 197.865 64.3957C197.474 64.3957 197.099 64.2979 196.773 64.1188ZM198.778 63.8745C199.054 63.728 199.251 63.5 199.414 63.2394C199.56 62.9626 199.642 62.653 199.642 62.3111C199.642 61.9691 199.56 61.6597 199.414 61.3827C199.266 61.1059 199.054 60.8942 198.778 60.7476C198.5 60.601 198.206 60.5196 197.865 60.5196C197.523 60.5196 197.229 60.601 196.952 60.7476C196.676 60.8942 196.479 61.1222 196.316 61.3827C196.17 61.6597 196.088 61.9691 196.088 62.3111C196.088 62.653 196.17 62.9626 196.316 63.2394C196.464 63.5162 196.676 63.728 196.952 63.8745C197.229 64.0211 197.523 64.1025 197.865 64.1025C198.206 64.1025 198.517 64.0211 198.778 63.8745ZM196.984 63.3046V63.158L197.017 63.1416H197.116C197.147 63.1416 197.18 63.1254 197.196 63.109C197.229 63.0766 197.229 63.0602 197.229 63.0276V61.5131C197.229 61.4805 197.213 61.4479 197.196 61.4317C197.163 61.3991 197.147 61.3991 197.116 61.3991H197.017L196.984 61.3827V61.2362L197.017 61.2199H197.865C198.11 61.2199 198.289 61.2687 198.435 61.3827C198.583 61.4967 198.647 61.6433 198.647 61.8387C198.647 61.9853 198.599 62.1319 198.484 62.2295C198.371 62.3435 198.239 62.4087 198.077 62.4251L198.272 62.4902L198.647 63.0928C198.679 63.1416 198.712 63.158 198.762 63.158H198.858L198.875 63.1742V63.3208L198.858 63.337H198.354L198.321 63.3208L197.799 62.4413H197.669V63.0276C197.669 63.0602 197.686 63.0928 197.702 63.109C197.735 63.1416 197.751 63.1416 197.783 63.1416H197.881L197.914 63.158V63.3046L197.881 63.3208H197.017L196.984 63.3046ZM197.816 62.2459C197.947 62.2459 198.06 62.2133 198.126 62.1319C198.19 62.0667 198.239 61.9527 198.239 61.8225C198.239 61.6921 198.206 61.5945 198.142 61.5131C198.077 61.4317 197.978 61.3991 197.865 61.3991H197.799C197.766 61.3991 197.735 61.4153 197.719 61.4317C197.686 61.4641 197.686 61.4805 197.686 61.5131V62.2459H197.816Z" fill="#00684A"/>
</g>
<defs>
<clipPath id="clip0_305_21">
<rect width="181" height="46" fill="white" transform="translate(19 27)"/>
</clipPath>
</defs>
</svg>
